<svg width="200" height="200" viewBox="0 0 200 200" fill="none" xmlns="http://www.w3.org/2000/svg">
<path d="M18.0145 89.0488L11.1163 100.914H10.3487L8.12571 97.0781H4.04858L8.27524 104.432H13.1997L22.0817 89.0488H18.0145Z" fill="#FF9245"/>
<path d="M17.2269 104.432L15.5921 101.609L13.9473 104.432H17.2269Z" fill="#132645"/>
<path d="M15.1934 92.5567L17.227 89.0488H8.31511L4.04858 96.4024H8.12571L10.3487 92.5567H15.1934Z" fill="#132645"/>
<path d="M43.8785 100.298C43.8785 99.7153 43.6722 99.2697 43.2596 98.9612C42.847 98.6459 42.1043 98.3168 41.0316 97.9741C39.9588 97.6245 39.1095 97.2817 38.4837 96.9458C36.7783 96.0272 35.9256 94.7898 35.9256 93.2337C35.9256 92.4248 36.1525 91.705 36.6064 91.0743C37.0671 90.4368 37.7239 89.9398 38.5766 89.5833C39.4362 89.2268 40.3989 89.0486 41.4648 89.0486C42.5376 89.0486 43.4934 89.244 44.3324 89.6347C45.1714 90.0186 45.8212 90.5636 46.282 91.2697C46.7496 91.9758 46.9834 92.7778 46.9834 93.6759H43.8889C43.8889 92.9903 43.6722 92.4591 43.239 92.082C42.8058 91.6981 42.1972 91.5062 41.4132 91.5062C40.6568 91.5062 40.0688 91.6673 39.6494 91.9895C39.2299 92.3048 39.0201 92.723 39.0201 93.244C39.0201 93.7307 39.2643 94.1386 39.7525 94.4676C40.2476 94.7967 40.9731 95.1052 41.929 95.3931C43.6894 95.9209 44.9719 96.5756 45.7765 97.3571C46.5811 98.1386 46.9834 99.112 46.9834 100.277C46.9834 101.573 46.4917 102.591 45.5083 103.331C44.5249 104.065 43.2012 104.432 41.537 104.432C40.3817 104.432 39.3296 104.223 38.3806 103.804C37.4316 103.379 36.7061 102.8 36.2041 102.067C35.709 101.333 35.4614 100.483 35.4614 99.5165H38.5663C38.5663 101.169 39.5565 101.995 41.537 101.995C42.2728 101.995 42.847 101.847 43.2596 101.552C43.6722 101.251 43.8785 100.833 43.8785 100.298Z" fill="#132645"/>
<path d="M28.4735 98.8017H25.9308V104.433H22.739V89.0496H28.4948C30.3248 89.0496 31.7362 89.4546 32.7292 90.2647C33.7222 91.0747 34.2187 92.2193 34.2187 93.6985C34.2187 94.748 33.9882 95.625 33.5272 96.3293C33.0732 97.0267 32.3817 97.5831 31.4525 97.9987L34.8039 104.285V104.433H31.3781L28.4735 98.8017ZM25.9308 96.2342H28.5055C29.307 96.2342 29.9276 96.0335 30.3673 95.632C30.8071 95.2235 31.027 94.6635 31.027 93.9521C31.027 93.2266 30.8177 92.656 30.3992 92.2404C29.9879 91.8249 29.3531 91.6171 28.4948 91.6171H25.9308V96.2342Z" fill="#132645"/>
<path d="M47.5413 103.507C47.5413 103.341 47.5817 103.187 47.6625 103.045C47.7442 102.902 47.8568 102.791 48.0002 102.709C48.1445 102.627 48.3001 102.586 48.467 102.586C48.6339 102.586 48.789 102.627 48.9325 102.709C49.0768 102.791 49.1893 102.902 49.2702 103.045C49.3519 103.187 49.3927 103.341 49.3927 103.507C49.3927 103.675 49.3514 103.831 49.2689 103.974C49.1863 104.116 49.0733 104.228 48.9299 104.309C48.7873 104.391 48.633 104.432 48.467 104.432C48.2992 104.432 48.1436 104.39 48.0002 104.308C47.8577 104.226 47.7455 104.114 47.6638 103.971C47.5821 103.829 47.5413 103.674 47.5413 103.507ZM49.2324 103.507C49.2324 103.371 49.1998 103.244 49.1346 103.127C49.0694 103.01 48.9772 102.916 48.8581 102.846C48.7391 102.775 48.6087 102.74 48.467 102.74C48.3288 102.74 48.2001 102.774 48.0811 102.841C47.9628 102.909 47.8698 103.002 47.802 103.12C47.7342 103.238 47.7003 103.368 47.7003 103.507C47.7003 103.647 47.7338 103.776 47.8007 103.895C47.8685 104.013 47.9615 104.107 48.0797 104.176C48.1988 104.244 48.3279 104.279 48.467 104.279C48.6061 104.279 48.7352 104.244 48.8542 104.174C48.9742 104.104 49.0672 104.01 49.1333 103.891C49.1993 103.773 49.2324 103.645 49.2324 103.507ZM48.2792 103.601V104.017H48.0824V102.968H48.4487C48.58 102.968 48.6834 102.997 48.7591 103.053C48.8347 103.109 48.8725 103.189 48.8725 103.293C48.8725 103.385 48.8234 103.456 48.7252 103.507C48.7782 103.533 48.8151 103.569 48.836 103.615C48.8577 103.66 48.8686 103.716 48.8686 103.784C48.8686 103.851 48.8699 103.899 48.8725 103.927C48.876 103.955 48.8821 103.978 48.8907 103.997V104.017H48.6886C48.6773 103.989 48.6717 103.909 48.6717 103.778C48.6717 103.715 48.6574 103.67 48.6287 103.643C48.6 103.615 48.5522 103.601 48.4852 103.601H48.2792ZM48.2792 103.436H48.4566C48.5209 103.436 48.5735 103.423 48.6143 103.396C48.6561 103.37 48.6769 103.336 48.6769 103.293C48.6769 103.235 48.6613 103.194 48.63 103.171C48.5996 103.146 48.5439 103.133 48.4631 103.132H48.2792V103.436Z" fill="#132645"/>
<path d="M61.791 100.05C61.791 100.335 61.8507 100.596 61.97 100.835C62.0984 101.064 62.2636 101.262 62.4655 101.427C62.6674 101.592 62.9014 101.72 63.1675 101.812C63.4337 101.904 63.709 101.95 63.9934 101.95C64.3789 101.95 64.7138 101.863 64.9983 101.688C65.2828 101.505 65.5443 101.266 65.7829 100.972L66.7189 101.688C66.0307 102.578 65.0671 103.023 63.8283 103.023C63.3144 103.023 62.8463 102.936 62.4242 102.762C62.0113 102.588 61.6579 102.349 61.3643 102.046C61.0798 101.734 60.8596 101.372 60.7036 100.959C60.5476 100.537 60.4696 100.082 60.4696 99.5959C60.4696 99.1096 60.5521 98.6599 60.7173 98.2469C60.8917 97.8248 61.1257 97.4623 61.4194 97.1595C61.7222 96.8475 62.0801 96.6043 62.493 96.4299C62.906 96.2556 63.3557 96.1684 63.842 96.1684C64.4202 96.1684 64.9065 96.2693 65.3011 96.4712C65.7049 96.6731 66.0353 96.9392 66.2922 97.2696C66.5492 97.5908 66.7327 97.9579 66.8428 98.3708C66.9621 98.7746 67.0218 99.1876 67.0218 99.6097V100.05H61.791ZM65.7003 99.0591C65.6911 98.7838 65.6453 98.5314 65.5627 98.302C65.4893 98.0726 65.3745 97.8753 65.2185 97.7101C65.0625 97.5357 64.8652 97.4027 64.6266 97.3109C64.3972 97.21 64.1265 97.1595 63.8145 97.1595C63.5117 97.1595 63.2318 97.2191 62.9748 97.3384C62.727 97.4486 62.516 97.5954 62.3416 97.7789C62.1673 97.9625 62.0296 98.1689 61.9287 98.3984C61.8369 98.6186 61.791 98.8388 61.791 99.0591H65.7003ZM75.3313 95.2186C75.056 94.8607 74.7073 94.5854 74.2852 94.3927C73.863 94.2 73.4271 94.1036 72.9775 94.1036C72.4269 94.1036 71.9267 94.2092 71.4771 94.4202C71.0366 94.6221 70.6558 94.902 70.3346 95.2599C70.0226 95.6178 69.7794 96.0399 69.605 96.5263C69.4306 97.0035 69.3435 97.5174 69.3435 98.068C69.3435 98.5819 69.4261 99.0683 69.5912 99.5271C69.7564 99.9859 69.995 100.39 70.307 100.738C70.619 101.087 70.9999 101.362 71.4495 101.564C71.8992 101.766 72.4085 101.867 72.9775 101.867C73.5373 101.867 74.0282 101.752 74.4504 101.523C74.8725 101.294 75.2304 100.972 75.524 100.559L76.639 101.399C76.5656 101.5 76.4371 101.647 76.2536 101.84C76.0701 102.023 75.8269 102.211 75.524 102.404C75.2212 102.588 74.8541 102.748 74.4228 102.886C74.0007 103.033 73.5097 103.106 72.9499 103.106C72.1791 103.106 71.4817 102.959 70.8576 102.666C70.2428 102.372 69.7151 101.986 69.2746 101.509C68.8433 101.032 68.513 100.495 68.2836 99.8988C68.0541 99.2931 67.9394 98.6828 67.9394 98.068C67.9394 97.3155 68.0633 96.6226 68.3111 95.9895C68.5589 95.3471 68.903 94.7965 69.3435 94.3376C69.7931 93.8696 70.33 93.5071 70.954 93.2502C71.578 92.9932 72.2663 92.8648 73.0188 92.8648C73.6611 92.8648 74.2898 92.9886 74.9046 93.2364C75.5286 93.4842 76.0379 93.865 76.4325 94.3789L75.3313 95.2186ZM77.6453 96.3336H78.8841V97.3384H78.9117C78.9943 97.1641 79.1044 97.0081 79.242 96.8704C79.3797 96.7236 79.5311 96.5997 79.6963 96.4988C79.8706 96.3978 80.0588 96.3198 80.2607 96.2648C80.4625 96.2005 80.6644 96.1684 80.8663 96.1684C81.0682 96.1684 81.2517 96.1959 81.4169 96.251L81.3619 97.5862C81.2609 97.5587 81.16 97.5357 81.059 97.5174C80.9581 97.499 80.8571 97.4899 80.7562 97.4899C80.1505 97.4899 79.6871 97.6596 79.3659 97.9992C79.0447 98.3387 78.8841 98.8664 78.8841 99.5822V102.858H77.6453V96.3336ZM83.1588 100.05C83.1588 100.335 83.2184 100.596 83.3377 100.835C83.4662 101.064 83.6314 101.262 83.8333 101.427C84.0351 101.592 84.2692 101.72 84.5353 101.812C84.8014 101.904 85.0767 101.95 85.3612 101.95C85.7466 101.95 86.0816 101.863 86.3661 101.688C86.6505 101.505 86.9121 101.266 87.1507 100.972L88.0867 101.688C87.3984 102.578 86.4349 103.023 85.196 103.023C84.6821 103.023 84.2141 102.936 83.792 102.762C83.379 102.588 83.0257 102.349 82.732 102.046C82.4476 101.734 82.2273 101.372 82.0713 100.959C81.9153 100.537 81.8373 100.082 81.8373 99.5959C81.8373 99.1096 81.9199 98.6599 82.0851 98.2469C82.2594 97.8248 82.4934 97.4623 82.7871 97.1595C83.0899 96.8475 83.4478 96.6043 83.8608 96.4299C84.2737 96.2556 84.7234 96.1684 85.2098 96.1684C85.7879 96.1684 86.2743 96.2693 86.6689 96.4712C87.0727 96.6731 87.403 96.9392 87.66 97.2696C87.9169 97.5908 88.1005 97.9579 88.2106 98.3708C88.3299 98.7746 88.3895 99.1876 88.3895 99.6097V100.05H83.1588ZM87.0681 99.0591C87.0589 98.7838 87.013 98.5314 86.9304 98.302C86.857 98.0726 86.7423 97.8753 86.5863 97.7101C86.4303 97.5357 86.233 97.4027 85.9944 97.3109C85.765 97.21 85.4943 97.1595 85.1822 97.1595C84.8794 97.1595 84.5995 97.2191 84.3426 97.3384C84.0948 97.4486 83.8837 97.5954 83.7094 97.7789C83.535 97.9625 83.3974 98.1689 83.2964 98.3984C83.2046 98.6186 83.1588 98.8388 83.1588 99.0591H87.0681ZM96.1347 102.858H94.8958V101.922H94.8683C94.6297 102.271 94.2993 102.542 93.8772 102.734C93.4643 102.927 93.0375 103.023 92.5971 103.023C92.0923 103.023 91.6335 102.936 91.2205 102.762C90.8168 102.588 90.468 102.344 90.1744 102.032C89.8899 101.72 89.6697 101.358 89.5137 100.945C89.3576 100.532 89.2796 100.082 89.2796 99.5959C89.2796 99.1096 89.3576 98.6599 89.5137 98.2469C89.6697 97.8248 89.8899 97.4623 90.1744 97.1595C90.468 96.8475 90.8168 96.6043 91.2205 96.4299C91.6335 96.2556 92.0923 96.1684 92.5971 96.1684C93.0651 96.1684 93.5056 96.2693 93.9185 96.4712C94.3315 96.6639 94.6481 96.9301 94.8683 97.2696H94.8958V92.4518H96.1347V102.858ZM92.7485 101.867C93.0788 101.867 93.3771 101.812 93.6432 101.702C93.9093 101.583 94.1342 101.427 94.3177 101.234C94.5012 101.032 94.6435 100.793 94.7444 100.518C94.8454 100.234 94.8958 99.9263 94.8958 99.5959C94.8958 99.2656 94.8454 98.9627 94.7444 98.6874C94.6435 98.4029 94.5012 98.1643 94.3177 97.9716C94.1342 97.7697 93.9093 97.6137 93.6432 97.5036C93.3771 97.3843 93.0788 97.3247 92.7485 97.3247C92.4181 97.3247 92.1199 97.3843 91.8537 97.5036C91.5876 97.6137 91.3628 97.7697 91.1792 97.9716C90.9957 98.1643 90.8535 98.4029 90.7525 98.6874C90.6516 98.9627 90.6011 99.2656 90.6011 99.5959C90.6011 99.9263 90.6516 100.234 90.7525 100.518C90.8535 100.793 90.9957 101.032 91.1792 101.234C91.3628 101.427 91.5876 101.583 91.8537 101.702C92.1199 101.812 92.4181 101.867 92.7485 101.867ZM97.8323 96.3336H99.0712V102.858H97.8323V96.3336ZM97.5433 93.9935C97.5433 93.7457 97.6305 93.5347 97.8048 93.3603C97.9883 93.1768 98.204 93.085 98.4518 93.085C98.6995 93.085 98.9106 93.1768 99.085 93.3603C99.2685 93.5347 99.3603 93.7457 99.3603 93.9935C99.3603 94.2413 99.2685 94.4569 99.085 94.6405C98.9106 94.8148 98.6995 94.902 98.4518 94.902C98.204 94.902 97.9883 94.8148 97.8048 94.6405C97.6305 94.4569 97.5433 94.2413 97.5433 93.9935ZM104.264 97.4073H102.488V100.367C102.488 100.55 102.493 100.734 102.502 100.917C102.511 101.092 102.543 101.252 102.598 101.399C102.663 101.537 102.754 101.652 102.874 101.743C103.002 101.826 103.186 101.867 103.424 101.867C103.571 101.867 103.722 101.853 103.878 101.826C104.034 101.798 104.177 101.748 104.305 101.674V102.803C104.158 102.886 103.966 102.941 103.727 102.968C103.498 103.005 103.319 103.023 103.19 103.023C102.713 103.023 102.341 102.959 102.075 102.831C101.818 102.693 101.626 102.519 101.497 102.308C101.378 102.097 101.304 101.863 101.277 101.606C101.259 101.34 101.249 101.073 101.249 100.807V97.4073H99.8178V96.3336H101.249V94.5028H102.488V96.3336H104.264V97.4073ZM109.363 93.1125H111.331L114.429 100.491H114.484L117.553 93.1125H119.522V102.858H118.2V94.8469H118.173L114.883 102.858H114.002L110.712 94.8469H110.685V102.858H109.363V93.1125ZM122.347 99.5959C122.347 99.9263 122.398 100.234 122.498 100.518C122.599 100.793 122.742 101.032 122.925 101.234C123.109 101.427 123.334 101.583 123.6 101.702C123.866 101.812 124.164 101.867 124.494 101.867C124.825 101.867 125.123 101.812 125.389 101.702C125.655 101.583 125.88 101.427 126.064 101.234C126.247 101.032 126.389 100.793 126.49 100.518C126.591 100.234 126.642 99.9263 126.642 99.5959C126.642 99.2656 126.591 98.9627 126.49 98.6874C126.389 98.4029 126.247 98.1643 126.064 97.9716C125.88 97.7697 125.655 97.6137 125.389 97.5036C125.123 97.3843 124.825 97.3247 124.494 97.3247C124.164 97.3247 123.866 97.3843 123.6 97.5036C123.334 97.6137 123.109 97.7697 122.925 97.9716C122.742 98.1643 122.599 98.4029 122.498 98.6874C122.398 98.9627 122.347 99.2656 122.347 99.5959ZM121.026 99.5959C121.026 99.1187 121.113 98.6737 121.287 98.2607C121.471 97.8478 121.718 97.4853 122.03 97.1733C122.342 96.8612 122.71 96.6181 123.132 96.4437C123.554 96.2602 124.008 96.1684 124.494 96.1684C124.981 96.1684 125.435 96.2602 125.857 96.4437C126.279 96.6181 126.646 96.8612 126.958 97.1733C127.27 97.4853 127.514 97.8478 127.688 98.2607C127.871 98.6737 127.963 99.1187 127.963 99.5959C127.963 100.073 127.871 100.523 127.688 100.945C127.514 101.358 127.27 101.72 126.958 102.032C126.646 102.335 126.279 102.578 125.857 102.762C125.435 102.936 124.981 103.023 124.494 103.023C124.008 103.023 123.554 102.936 123.132 102.762C122.71 102.578 122.342 102.335 122.03 102.032C121.718 101.72 121.471 101.358 121.287 100.945C121.113 100.523 121.026 100.073 121.026 99.5959ZM129.24 96.3336H130.479V97.3384H130.506C130.662 96.9897 130.933 96.7098 131.319 96.4988C131.704 96.2785 132.149 96.1684 132.654 96.1684C132.966 96.1684 133.264 96.2189 133.548 96.3198C133.842 96.4116 134.094 96.5584 134.306 96.7603C134.526 96.9622 134.7 97.2237 134.829 97.5449C134.957 97.8569 135.021 98.2286 135.021 98.6599V102.858H133.782V99.004C133.782 98.7012 133.741 98.4442 133.659 98.2332C133.576 98.0129 133.466 97.8386 133.328 97.7101C133.191 97.5724 133.03 97.4761 132.846 97.421C132.672 97.3568 132.489 97.3247 132.296 97.3247C132.039 97.3247 131.8 97.366 131.58 97.4486C131.36 97.5312 131.167 97.6642 131.002 97.8477C130.837 98.0221 130.708 98.2469 130.616 98.5222C130.525 98.7975 130.479 99.1233 130.479 99.4996V102.858H129.24V96.3336ZM136.71 96.3336H137.949V102.858H136.71V96.3336ZM136.421 93.9935C136.421 93.7457 136.508 93.5347 136.682 93.3603C136.866 93.1768 137.082 93.085 137.329 93.085C137.577 93.085 137.788 93.1768 137.962 93.3603C138.146 93.5347 138.238 93.7457 138.238 93.9935C138.238 94.2413 138.146 94.4569 137.962 94.6405C137.788 94.8148 137.577 94.902 137.329 94.902C137.082 94.902 136.866 94.8148 136.682 94.6405C136.508 94.4569 136.421 94.2413 136.421 93.9935ZM143.141 97.4073H141.366V100.367C141.366 100.55 141.37 100.734 141.379 100.917C141.389 101.092 141.421 101.252 141.476 101.399C141.54 101.537 141.632 101.652 141.751 101.743C141.88 101.826 142.063 101.867 142.302 101.867C142.449 101.867 142.6 101.853 142.756 101.826C142.912 101.798 143.054 101.748 143.183 101.674V102.803C143.036 102.886 142.843 102.941 142.605 102.968C142.375 103.005 142.196 103.023 142.068 103.023C141.591 103.023 141.219 102.959 140.953 102.831C140.696 102.693 140.503 102.519 140.375 102.308C140.255 102.097 140.182 101.863 140.154 101.606C140.136 101.34 140.127 101.073 140.127 100.807V97.4073H138.695V96.3336H140.127V94.5028H141.366V96.3336H143.141V97.4073ZM145.469 99.5959C145.469 99.9263 145.52 100.234 145.621 100.518C145.722 100.793 145.864 101.032 146.047 101.234C146.231 101.427 146.456 101.583 146.722 101.702C146.988 101.812 147.286 101.867 147.617 101.867C147.947 101.867 148.245 101.812 148.511 101.702C148.778 101.583 149.002 101.427 149.186 101.234C149.369 101.032 149.512 100.793 149.613 100.518C149.714 100.234 149.764 99.9263 149.764 99.5959C149.764 99.2656 149.714 98.9627 149.613 98.6874C149.512 98.4029 149.369 98.1643 149.186 97.9716C149.002 97.7697 148.778 97.6137 148.511 97.5036C148.245 97.3843 147.947 97.3247 147.617 97.3247C147.286 97.3247 146.988 97.3843 146.722 97.5036C146.456 97.6137 146.231 97.7697 146.047 97.9716C145.864 98.1643 145.722 98.4029 145.621 98.6874C145.52 98.9627 145.469 99.2656 145.469 99.5959ZM144.148 99.5959C144.148 99.1187 144.235 98.6737 144.409 98.2607C144.593 97.8478 144.841 97.4853 145.153 97.1733C145.465 96.8612 145.832 96.6181 146.254 96.4437C146.676 96.2602 147.13 96.1684 147.617 96.1684C148.103 96.1684 148.557 96.2602 148.979 96.4437C149.402 96.6181 149.769 96.8612 150.081 97.1733C150.393 97.4853 150.636 97.8478 150.81 98.2607C150.994 98.6737 151.086 99.1187 151.086 99.5959C151.086 100.073 150.994 100.523 150.81 100.945C150.636 101.358 150.393 101.72 150.081 102.032C149.769 102.335 149.402 102.578 148.979 102.762C148.557 102.936 148.103 103.023 147.617 103.023C147.13 103.023 146.676 102.936 146.254 102.762C145.832 102.578 145.465 102.335 145.153 102.032C144.841 101.72 144.593 101.358 144.409 100.945C144.235 100.523 144.148 100.073 144.148 99.5959ZM152.362 96.3336H153.601V97.3384H153.629C153.711 97.1641 153.821 97.0081 153.959 96.8704C154.097 96.7236 154.248 96.5997 154.413 96.4988C154.588 96.3978 154.776 96.3198 154.978 96.2648C155.18 96.2005 155.381 96.1684 155.583 96.1684C155.785 96.1684 155.969 96.1959 156.134 96.251L156.079 97.5862C155.978 97.5587 155.877 97.5357 155.776 97.5174C155.675 97.499 155.574 97.4899 155.473 97.4899C154.868 97.4899 154.404 97.6596 154.083 97.9992C153.762 98.3387 153.601 98.8664 153.601 99.5822V102.858H152.362V96.3336ZM157.278 96.3336H158.517V102.858H157.278V96.3336ZM156.989 93.9935C156.989 93.7457 157.076 93.5347 157.251 93.3603C157.434 93.1768 157.65 93.085 157.897 93.085C158.145 93.085 158.356 93.1768 158.531 93.3603C158.714 93.5347 158.806 93.7457 158.806 93.9935C158.806 94.2413 158.714 94.4569 158.531 94.6405C158.356 94.8148 158.145 94.902 157.897 94.902C157.65 94.902 157.434 94.8148 157.251 94.6405C157.076 94.4569 156.989 94.2413 156.989 93.9935ZM160.213 96.3336H161.452V97.3384H161.48C161.636 96.9897 161.906 96.7098 162.292 96.4988C162.677 96.2785 163.122 96.1684 163.627 96.1684C163.939 96.1684 164.237 96.2189 164.522 96.3198C164.815 96.4116 165.068 96.5584 165.279 96.7603C165.499 96.9622 165.673 97.2237 165.802 97.5449C165.93 97.8569 165.995 98.2286 165.995 98.6599V102.858H164.756V99.004C164.756 98.7012 164.714 98.4442 164.632 98.2332C164.549 98.0129 164.439 97.8386 164.301 97.7101C164.164 97.5724 164.003 97.4761 163.82 97.421C163.645 97.3568 163.462 97.3247 163.269 97.3247C163.012 97.3247 162.774 97.366 162.553 97.4486C162.333 97.5312 162.14 97.6642 161.975 97.8477C161.81 98.0221 161.682 98.2469 161.59 98.5222C161.498 98.7975 161.452 99.1233 161.452 99.4996V102.858H160.213V96.3336ZM174.125 102.803C174.125 103.299 174.038 103.748 173.864 104.152C173.698 104.565 173.46 104.918 173.148 105.212C172.836 105.515 172.46 105.749 172.019 105.914C171.579 106.079 171.092 106.162 170.56 106.162C169.936 106.162 169.362 106.075 168.839 105.9C168.325 105.726 167.835 105.423 167.367 104.992L168.206 103.946C168.527 104.294 168.876 104.556 169.252 104.73C169.629 104.914 170.055 105.006 170.532 105.006C170.991 105.006 171.372 104.937 171.675 104.799C171.978 104.671 172.216 104.501 172.391 104.29C172.574 104.079 172.703 103.836 172.776 103.56C172.85 103.294 172.886 103.023 172.886 102.748V101.785H172.845C172.606 102.179 172.281 102.473 171.868 102.666C171.464 102.849 171.037 102.941 170.588 102.941C170.11 102.941 169.665 102.858 169.252 102.693C168.849 102.519 168.5 102.285 168.206 101.991C167.913 101.688 167.683 101.335 167.518 100.931C167.353 100.518 167.27 100.073 167.27 99.5959C167.27 99.1187 167.348 98.6737 167.504 98.2607C167.66 97.8386 167.88 97.4715 168.165 97.1595C168.459 96.8475 168.807 96.6043 169.211 96.4299C169.624 96.2556 170.083 96.1684 170.588 96.1684C171.028 96.1684 171.455 96.2648 171.868 96.4575C172.29 96.6502 172.62 96.9209 172.859 97.2696H172.886V96.3336H174.125V102.803ZM170.739 97.3247C170.409 97.3247 170.11 97.3843 169.844 97.5036C169.578 97.6137 169.353 97.7697 169.17 97.9716C168.986 98.1643 168.844 98.4029 168.743 98.6874C168.642 98.9627 168.592 99.2656 168.592 99.5959C168.592 100.257 168.784 100.789 169.17 101.193C169.555 101.587 170.078 101.785 170.739 101.785C171.4 101.785 171.923 101.587 172.308 101.193C172.694 100.789 172.886 100.257 172.886 99.5959C172.886 99.2656 172.836 98.9627 172.735 98.6874C172.634 98.4029 172.492 98.1643 172.308 97.9716C172.125 97.7697 171.9 97.6137 171.634 97.5036C171.368 97.3843 171.069 97.3247 170.739 97.3247ZM182.655 93.1125H183.852L188.023 102.858H186.482L185.504 100.449H180.865L179.902 102.858H178.36L182.655 93.1125ZM185.022 99.2931L183.205 94.8194H183.178L181.333 99.2931H185.022ZM189.016 93.1125H192.443C193.067 93.1125 193.581 93.1997 193.985 93.3741C194.389 93.5392 194.705 93.7549 194.935 94.021C195.173 94.278 195.339 94.5716 195.43 94.902C195.522 95.2232 195.568 95.5352 195.568 95.838C195.568 96.1409 195.522 96.4575 195.43 96.7878C195.339 97.109 195.173 97.4027 194.935 97.6688C194.705 97.9258 194.389 98.1414 193.985 98.3158C193.581 98.4809 193.067 98.5635 192.443 98.5635H190.337V102.858H189.016V93.1125ZM190.337 97.4073H192.072C192.329 97.4073 192.581 97.3889 192.829 97.3522C193.086 97.3063 193.31 97.2283 193.503 97.1182C193.705 97.0081 193.866 96.8521 193.985 96.6502C194.104 96.4391 194.164 96.1684 194.164 95.838C194.164 95.5077 194.104 95.2415 193.985 95.0397C193.866 94.8286 193.705 94.668 193.503 94.5579C193.31 94.4478 193.086 94.3743 192.829 94.3376C192.581 94.2917 192.329 94.2688 192.072 94.2688H190.337V97.4073ZM196.9 93.1125H198.221V102.858H196.9V93.1125Z" fill="#122645"/>
</svg>
