<svg width="200" height="200" viewBox="0 0 200 200" fill="none" xmlns="http://www.w3.org/2000/svg">
<path d="M10.8813 102.399C10.8813 102.773 10.9596 103.116 11.1162 103.429C11.2849 103.73 11.5018 103.989 11.7668 104.206C12.0319 104.423 12.3391 104.592 12.6886 104.712C13.038 104.833 13.3994 104.893 13.7729 104.893C14.279 104.893 14.7187 104.779 15.0923 104.55C15.4658 104.309 15.8092 103.995 16.1224 103.61L17.3514 104.55C16.4477 105.718 15.1826 106.303 13.5561 106.303C12.8813 106.303 12.2668 106.188 11.7126 105.959C11.1704 105.731 10.7066 105.417 10.321 105.02C9.94749 104.61 9.65832 104.134 9.45349 103.592C9.24866 103.038 9.14625 102.441 9.14625 101.803C9.14625 101.164 9.25469 100.574 9.47156 100.031C9.70049 99.4773 10.0077 99.0013 10.3933 98.6037C10.7909 98.1941 11.2608 97.8748 11.803 97.6459C12.3452 97.4169 12.9355 97.3025 13.5741 97.3025C14.3332 97.3025 14.9718 97.435 15.4899 97.7001C16.02 97.9652 16.4538 98.3146 16.7911 98.7483C17.1285 99.17 17.3695 99.652 17.514 100.194C17.6707 100.724 17.749 101.266 17.749 101.821V102.399H10.8813ZM16.014 101.098C16.0019 100.736 15.9417 100.405 15.8332 100.104C15.7369 99.8026 15.5863 99.5435 15.3814 99.3266C15.1766 99.0977 14.9176 98.923 14.6043 98.8025C14.3031 98.67 13.9476 98.6037 13.538 98.6037C13.1404 98.6037 12.7729 98.682 12.4355 98.8387C12.1102 98.9833 11.8331 99.176 11.6042 99.417C11.3753 99.658 11.1945 99.9291 11.062 100.23C10.9415 100.519 10.8813 100.809 10.8813 101.098H16.014ZM28.659 96.0554C28.2975 95.5855 27.8397 95.2241 27.2854 94.9711C26.7312 94.718 26.1589 94.5915 25.5685 94.5915C24.8456 94.5915 24.1889 94.7301 23.5986 95.0072C23.0202 95.2723 22.5202 95.6398 22.0985 96.1097C21.6888 96.5796 21.3696 97.1338 21.1406 97.7724C20.9117 98.3989 20.7972 99.0736 20.7972 99.7965C20.7972 100.471 20.9057 101.11 21.1226 101.712C21.3394 102.315 21.6527 102.845 22.0623 103.303C22.472 103.761 22.972 104.122 23.5624 104.387C24.1528 104.652 24.8215 104.785 25.5685 104.785C26.3035 104.785 26.9481 104.634 27.5023 104.333C28.0566 104.032 28.5264 103.61 28.912 103.068L30.3759 104.17C30.2795 104.303 30.1108 104.496 29.8699 104.749C29.6289 104.99 29.3096 105.237 28.912 105.49C28.5144 105.731 28.0325 105.941 27.4662 106.122C26.9119 106.315 26.2673 106.411 25.5324 106.411C24.5203 106.411 23.6046 106.218 22.7853 105.833C21.978 105.447 21.2852 104.941 20.7069 104.315C20.1406 103.688 19.7068 102.983 19.4056 102.2C19.1044 101.405 18.9538 100.604 18.9538 99.7965C18.9538 98.8086 19.1165 97.8989 19.4418 97.0675C19.7671 96.2241 20.2189 95.5012 20.7972 94.8988C21.3876 94.2843 22.0925 93.8084 22.9118 93.471C23.7311 93.1336 24.6347 92.965 25.6227 92.965C26.4661 92.965 27.2915 93.1276 28.0987 93.4529C28.918 93.7782 29.5867 94.2783 30.1048 94.953L28.659 96.0554ZM31.6971 97.5194H33.3236V98.8387H33.3598C33.4682 98.6098 33.6128 98.4049 33.7935 98.2242C33.9743 98.0314 34.1731 97.8688 34.3899 97.7362C34.6189 97.6037 34.8659 97.5013 35.1309 97.429C35.396 97.3446 35.6611 97.3025 35.9262 97.3025C36.1912 97.3025 36.4322 97.3386 36.6491 97.4109L36.5768 99.164C36.4442 99.1278 36.3117 99.0977 36.1792 99.0736C36.0466 99.0495 35.9141 99.0375 35.7816 99.0375C34.9864 99.0375 34.3779 99.2604 33.9562 99.7062C33.5345 100.152 33.3236 100.845 33.3236 101.785V106.086H31.6971V97.5194ZM38.936 102.399C38.936 102.773 39.0143 103.116 39.171 103.429C39.3396 103.73 39.5565 103.989 39.8216 104.206C40.0867 104.423 40.3939 104.592 40.7433 104.712C41.0927 104.833 41.4542 104.893 41.8277 104.893C42.3337 104.893 42.7735 104.779 43.147 104.55C43.5205 104.309 43.8639 103.995 44.1772 103.61L45.4061 104.55C44.5025 105.718 43.2374 106.303 41.6108 106.303C40.9361 106.303 40.3216 106.188 39.7674 105.959C39.2252 105.731 38.7613 105.417 38.3757 105.02C38.0022 104.61 37.7131 104.134 37.5082 103.592C37.3034 103.038 37.201 102.441 37.201 101.803C37.201 101.164 37.3094 100.574 37.5263 100.031C37.7552 99.4773 38.0625 99.0013 38.448 98.6037C38.8456 98.1941 39.3155 97.8748 39.8577 97.6459C40.3999 97.4169 40.9903 97.3025 41.6289 97.3025C42.3879 97.3025 43.0265 97.435 43.5446 97.7001C44.0748 97.9652 44.5085 98.3146 44.8459 98.7483C45.1832 99.17 45.4242 99.652 45.5688 100.194C45.7254 100.724 45.8037 101.266 45.8037 101.821V102.399H38.936ZM44.0687 101.098C44.0567 100.736 43.9964 100.405 43.888 100.104C43.7916 99.8026 43.641 99.5435 43.4362 99.3266C43.2313 99.0977 42.9723 98.923 42.659 98.8025C42.3578 98.67 42.0024 98.6037 41.5927 98.6037C41.1951 98.6037 40.8276 98.682 40.4903 98.8387C40.165 98.9833 39.8878 99.176 39.6589 99.417C39.43 99.658 39.2493 99.9291 39.1167 100.23C38.9962 100.519 38.936 100.809 38.936 101.098H44.0687ZM55.9727 106.086H54.3462V104.857H54.31C53.9968 105.315 53.563 105.67 53.0088 105.923C52.4666 106.176 51.9063 106.303 51.328 106.303C50.6653 106.303 50.0629 106.188 49.5207 105.959C48.9906 105.731 48.5327 105.411 48.1471 105.002C47.7736 104.592 47.4845 104.116 47.2796 103.574C47.0748 103.032 46.9724 102.441 46.9724 101.803C46.9724 101.164 47.0748 100.574 47.2796 100.031C47.4845 99.4773 47.7736 99.0013 48.1471 98.6037C48.5327 98.1941 48.9906 97.8748 49.5207 97.6459C50.0629 97.4169 50.6653 97.3025 51.328 97.3025C51.9425 97.3025 52.5208 97.435 53.063 97.7001C53.6052 97.9531 54.0209 98.3025 54.31 98.7483H54.3462V92.4228H55.9727V106.086ZM51.5268 104.785C51.9605 104.785 52.3521 104.712 52.7015 104.568C53.0509 104.411 53.3461 104.206 53.5871 103.953C53.8281 103.688 54.0148 103.375 54.1474 103.014C54.2799 102.64 54.3462 102.236 54.3462 101.803C54.3462 101.369 54.2799 100.971 54.1474 100.61C54.0148 100.236 53.8281 99.9231 53.5871 99.67C53.3461 99.405 53.0509 99.2001 52.7015 99.0556C52.3521 98.8989 51.9605 98.8206 51.5268 98.8206C51.093 98.8206 50.7015 98.8989 50.352 99.0556C50.0026 99.2001 49.7074 99.405 49.4665 99.67C49.2255 99.9231 49.0387 100.236 48.9062 100.61C48.7737 100.971 48.7074 101.369 48.7074 101.803C48.7074 102.236 48.7737 102.64 48.9062 103.014C49.0387 103.375 49.2255 103.688 49.4665 103.953C49.7074 104.206 50.0026 104.411 50.352 104.568C50.7015 104.712 51.093 104.785 51.5268 104.785ZM58.2016 97.5194H59.8282V106.086H58.2016V97.5194ZM57.8221 94.4469C57.8221 94.1216 57.9366 93.8445 58.1655 93.6156C58.4065 93.3746 58.6896 93.2541 59.0149 93.2541C59.3402 93.2541 59.6174 93.3746 59.8463 93.6156C60.0873 93.8445 60.2077 94.1216 60.2077 94.4469C60.2077 94.7723 60.0873 95.0554 59.8463 95.2964C59.6174 95.5253 59.3402 95.6398 59.0149 95.6398C58.6896 95.6398 58.4065 95.5253 58.1655 95.2964C57.9366 95.0554 57.8221 94.7723 57.8221 94.4469ZM66.646 98.929H64.3145V102.815C64.3145 103.056 64.3206 103.297 64.3326 103.538C64.3447 103.767 64.3868 103.977 64.4591 104.17C64.5435 104.351 64.664 104.502 64.8206 104.622C64.9893 104.73 65.2302 104.785 65.5435 104.785C65.7363 104.785 65.9351 104.767 66.1399 104.73C66.3447 104.694 66.5315 104.628 66.7002 104.532V106.014C66.5074 106.122 66.2544 106.194 65.9411 106.231C65.6399 106.279 65.4049 106.303 65.2363 106.303C64.6097 106.303 64.1218 106.218 63.7724 106.05C63.435 105.869 63.182 105.64 63.0133 105.363C62.8567 105.086 62.7603 104.779 62.7241 104.441C62.7 104.092 62.688 103.742 62.688 103.393V98.929H60.8084V97.5194H62.688V95.1156H64.3145V97.5194H66.646V98.929ZM73.3409 93.2903H75.9253L79.9917 102.977H80.064L84.0943 93.2903H86.6787V106.086H84.9437V95.5675H84.9076L80.5881 106.086H79.4315L75.112 95.5675H75.0759V106.086H73.3409V93.2903ZM90.3882 101.803C90.3882 102.236 90.4545 102.64 90.587 103.014C90.7195 103.375 90.9063 103.688 91.1473 103.953C91.3882 104.206 91.6834 104.411 92.0328 104.568C92.3822 104.712 92.7738 104.785 93.2076 104.785C93.6413 104.785 94.0329 104.712 94.3823 104.568C94.7317 104.411 95.0269 104.206 95.2679 103.953C95.5089 103.688 95.6956 103.375 95.8281 103.014C95.9607 102.64 96.027 102.236 96.027 101.803C96.027 101.369 95.9607 100.971 95.8281 100.61C95.6956 100.236 95.5089 99.9231 95.2679 99.67C95.0269 99.405 94.7317 99.2001 94.3823 99.0556C94.0329 98.8989 93.6413 98.8206 93.2076 98.8206C92.7738 98.8206 92.3822 98.8989 92.0328 99.0556C91.6834 99.2001 91.3882 99.405 91.1473 99.67C90.9063 99.9231 90.7195 100.236 90.587 100.61C90.4545 100.971 90.3882 101.369 90.3882 101.803ZM88.6532 101.803C88.6532 101.176 88.7676 100.592 88.9966 100.05C89.2375 99.5074 89.5629 99.0315 89.9725 98.6218C90.3822 98.2121 90.8641 97.8929 91.4183 97.6639C91.9726 97.423 92.569 97.3025 93.2076 97.3025C93.8461 97.3025 94.4426 97.423 94.9968 97.6639C95.551 97.8929 96.033 98.2121 96.4426 98.6218C96.8523 99.0315 97.1716 99.5074 97.4005 100.05C97.6415 100.592 97.762 101.176 97.762 101.803C97.762 102.429 97.6415 103.02 97.4005 103.574C97.1716 104.116 96.8523 104.592 96.4426 105.002C96.033 105.399 95.551 105.718 94.9968 105.959C94.4426 106.188 93.8461 106.303 93.2076 106.303C92.569 106.303 91.9726 106.188 91.4183 105.959C90.8641 105.718 90.3822 105.399 89.9725 105.002C89.5629 104.592 89.2375 104.116 88.9966 103.574C88.7676 103.02 88.6532 102.429 88.6532 101.803ZM99.4382 97.5194H101.065V98.8387H101.101C101.306 98.3808 101.661 98.0133 102.167 97.7362C102.673 97.4471 103.258 97.3025 103.92 97.3025C104.33 97.3025 104.722 97.3687 105.095 97.5013C105.481 97.6218 105.812 97.8145 106.089 98.0796C106.378 98.3447 106.607 98.6881 106.776 99.1098C106.945 99.5194 107.029 100.007 107.029 100.574V106.086H105.402V101.026C105.402 100.628 105.348 100.291 105.24 100.013C105.131 99.7243 104.987 99.4953 104.806 99.3266C104.625 99.1459 104.414 99.0194 104.173 98.9471C103.944 98.8628 103.703 98.8206 103.45 98.8206C103.113 98.8206 102.8 98.8748 102.511 98.9833C102.221 99.0917 101.968 99.2664 101.752 99.5074C101.535 99.7363 101.366 100.031 101.246 100.393C101.125 100.754 101.065 101.182 101.065 101.676V106.086H99.4382V97.5194ZM109.246 97.5194H110.872V106.086H109.246V97.5194ZM108.866 94.4469C108.866 94.1216 108.981 93.8445 109.21 93.6156C109.451 93.3746 109.734 93.2541 110.059 93.2541C110.384 93.2541 110.661 93.3746 110.89 93.6156C111.131 93.8445 111.252 94.1216 111.252 94.4469C111.252 94.7723 111.131 95.0554 110.89 95.2964C110.661 95.5253 110.384 95.6398 110.059 95.6398C109.734 95.6398 109.451 95.5253 109.21 95.2964C108.981 95.0554 108.866 94.7723 108.866 94.4469ZM117.69 98.929H115.359V102.815C115.359 103.056 115.365 103.297 115.377 103.538C115.389 103.767 115.431 103.977 115.503 104.17C115.588 104.351 115.708 104.502 115.865 104.622C116.033 104.73 116.274 104.785 116.588 104.785C116.78 104.785 116.979 104.767 117.184 104.73C117.389 104.694 117.576 104.628 117.744 104.532V106.014C117.552 106.122 117.299 106.194 116.985 106.231C116.684 106.279 116.449 106.303 116.28 106.303C115.654 106.303 115.166 106.218 114.816 106.05C114.479 105.869 114.226 105.64 114.057 105.363C113.901 105.086 113.804 104.779 113.768 104.441C113.744 104.092 113.732 103.742 113.732 103.393V98.929H111.853V97.5194H113.732V95.1156H115.359V97.5194H117.69V98.929ZM120.747 101.803C120.747 102.236 120.813 102.64 120.945 103.014C121.078 103.375 121.265 103.688 121.506 103.953C121.747 104.206 122.042 104.411 122.391 104.568C122.741 104.712 123.132 104.785 123.566 104.785C124 104.785 124.391 104.712 124.741 104.568C125.09 104.411 125.385 104.206 125.626 103.953C125.867 103.688 126.054 103.375 126.186 103.014C126.319 102.64 126.385 102.236 126.385 101.803C126.385 101.369 126.319 100.971 126.186 100.61C126.054 100.236 125.867 99.9231 125.626 99.67C125.385 99.405 125.09 99.2001 124.741 99.0556C124.391 98.8989 124 98.8206 123.566 98.8206C123.132 98.8206 122.741 98.8989 122.391 99.0556C122.042 99.2001 121.747 99.405 121.506 99.67C121.265 99.9231 121.078 100.236 120.945 100.61C120.813 100.971 120.747 101.369 120.747 101.803ZM119.012 101.803C119.012 101.176 119.126 100.592 119.355 100.05C119.596 99.5074 119.921 99.0315 120.331 98.6218C120.741 98.2121 121.222 97.8929 121.777 97.6639C122.331 97.423 122.927 97.3025 123.566 97.3025C124.204 97.3025 124.801 97.423 125.355 97.6639C125.909 97.8929 126.391 98.2121 126.801 98.6218C127.211 99.0315 127.53 99.5074 127.759 100.05C128 100.592 128.12 101.176 128.12 101.803C128.12 102.429 128 103.02 127.759 103.574C127.53 104.116 127.211 104.592 126.801 105.002C126.391 105.399 125.909 105.718 125.355 105.959C124.801 106.188 124.204 106.303 123.566 106.303C122.927 106.303 122.331 106.188 121.777 105.959C121.222 105.718 120.741 105.399 120.331 105.002C119.921 104.592 119.596 104.116 119.355 103.574C119.126 103.02 119.012 102.429 119.012 101.803ZM129.797 97.5194H131.423V98.8387H131.459C131.568 98.6098 131.712 98.4049 131.893 98.2242C132.074 98.0314 132.273 97.8688 132.489 97.7362C132.718 97.6037 132.965 97.5013 133.23 97.429C133.496 97.3446 133.761 97.3025 134.026 97.3025C134.291 97.3025 134.532 97.3386 134.749 97.4109L134.676 99.164C134.544 99.1278 134.411 99.0977 134.279 99.0736C134.146 99.0495 134.014 99.0375 133.881 99.0375C133.086 99.0375 132.477 99.2604 132.056 99.7062C131.634 100.152 131.423 100.845 131.423 101.785V106.086H129.797V97.5194ZM136.251 97.5194H137.877V106.086H136.251V97.5194ZM135.871 94.4469C135.871 94.1216 135.986 93.8445 136.215 93.6156C136.456 93.3746 136.739 93.2541 137.064 93.2541C137.389 93.2541 137.666 93.3746 137.895 93.6156C138.136 93.8445 138.257 94.1216 138.257 94.4469C138.257 94.7723 138.136 95.0554 137.895 95.2964C137.666 95.5253 137.389 95.6398 137.064 95.6398C136.739 95.6398 136.456 95.5253 136.215 95.2964C135.986 95.0554 135.871 94.7723 135.871 94.4469ZM140.105 97.5194H141.731V98.8387H141.767C141.972 98.3808 142.327 98.0133 142.834 97.7362C143.34 97.4471 143.924 97.3025 144.587 97.3025C144.996 97.3025 145.388 97.3687 145.761 97.5013C146.147 97.6218 146.478 97.8145 146.755 98.0796C147.045 98.3447 147.273 98.6881 147.442 99.1098C147.611 99.5194 147.695 100.007 147.695 100.574V106.086H146.069V101.026C146.069 100.628 146.014 100.291 145.906 100.013C145.797 99.7243 145.653 99.4953 145.472 99.3266C145.291 99.1459 145.081 99.0194 144.84 98.9471C144.611 98.8628 144.37 98.8206 144.117 98.8206C143.779 98.8206 143.466 98.8748 143.177 98.9833C142.888 99.0917 142.635 99.2664 142.418 99.5074C142.201 99.7363 142.032 100.031 141.912 100.393C141.791 100.754 141.731 101.182 141.731 101.676V106.086H140.105V97.5194ZM158.37 106.014C158.37 106.664 158.256 107.255 158.027 107.785C157.81 108.327 157.497 108.791 157.087 109.176C156.677 109.574 156.183 109.881 155.605 110.098C155.027 110.315 154.388 110.423 153.689 110.423C152.87 110.423 152.117 110.309 151.43 110.08C150.755 109.851 150.111 109.454 149.496 108.887L150.599 107.514C151.021 107.972 151.478 108.315 151.972 108.544C152.466 108.785 153.027 108.905 153.653 108.905C154.256 108.905 154.756 108.815 155.153 108.634C155.551 108.466 155.864 108.243 156.093 107.966C156.334 107.688 156.503 107.369 156.599 107.008C156.695 106.658 156.744 106.303 156.744 105.941V104.676H156.689C156.376 105.194 155.948 105.58 155.406 105.833C154.876 106.074 154.316 106.194 153.725 106.194C153.099 106.194 152.515 106.086 151.972 105.869C151.442 105.64 150.984 105.333 150.599 104.947C150.213 104.55 149.912 104.086 149.695 103.556C149.478 103.014 149.37 102.429 149.37 101.803C149.37 101.176 149.472 100.592 149.677 100.05C149.882 99.4953 150.171 99.0134 150.545 98.6037C150.93 98.1941 151.388 97.8748 151.918 97.6459C152.46 97.4169 153.063 97.3025 153.725 97.3025C154.304 97.3025 154.864 97.429 155.406 97.682C155.96 97.935 156.394 98.2905 156.707 98.7483H156.744V97.5194H158.37V106.014ZM153.924 98.8206C153.49 98.8206 153.099 98.8989 152.75 99.0556C152.4 99.2001 152.105 99.405 151.864 99.67C151.623 99.9231 151.436 100.236 151.304 100.61C151.171 100.971 151.105 101.369 151.105 101.803C151.105 102.67 151.358 103.369 151.864 103.899C152.37 104.417 153.057 104.676 153.924 104.676C154.792 104.676 155.479 104.417 155.985 103.899C156.491 103.369 156.744 102.67 156.744 101.803C156.744 101.369 156.677 100.971 156.545 100.61C156.412 100.236 156.226 99.9231 155.985 99.67C155.744 99.405 155.448 99.2001 155.099 99.0556C154.75 98.8989 154.358 98.8206 153.924 98.8206ZM169.569 93.2903H171.141L176.618 106.086H174.593L173.31 102.923H167.22L165.955 106.086H163.93L169.569 93.2903ZM172.678 101.405L170.292 95.5313H170.256L167.834 101.405H172.678ZM177.921 93.2903H182.421C183.24 93.2903 183.915 93.4047 184.445 93.6337C184.975 93.8505 185.391 94.1337 185.692 94.4831C186.005 94.8205 186.222 95.206 186.343 95.6398C186.463 96.0615 186.523 96.4711 186.523 96.8687C186.523 97.2663 186.463 97.682 186.343 98.1158C186.222 98.5375 186.005 98.923 185.692 99.2724C185.391 99.6098 184.975 99.8929 184.445 100.122C183.915 100.339 183.24 100.447 182.421 100.447H179.656V106.086H177.921V93.2903ZM179.656 98.929H181.933C182.27 98.929 182.602 98.9049 182.927 98.8568C183.264 98.7965 183.559 98.6941 183.812 98.5495C184.077 98.4049 184.288 98.2001 184.445 97.935C184.602 97.6579 184.68 97.3025 184.68 96.8687C184.68 96.435 184.602 96.0856 184.445 95.8205C184.288 95.5434 184.077 95.3325 183.812 95.1879C183.559 95.0434 183.264 94.947 182.927 94.8988C182.602 94.8385 182.27 94.8084 181.933 94.8084H179.656V98.929ZM188.272 93.2903H190.007V106.086H188.272V93.2903Z" fill="#122645"/>
</svg>
