<?xml version="1.0" encoding="utf-8"?>
<svg width="200" height="200" viewBox="0 0 200 200" fill="none" xmlns="http://www.w3.org/2000/svg">
  <path d="M 5.57 154.058 C 5.57 154.451 5.653 154.811 5.817 155.141 C 5.995 155.456 6.223 155.73 6.502 155.957 C 6.78 156.185 7.103 156.361 7.47 156.488 C 7.837 156.615 8.217 156.679 8.61 156.679 C 9.141 156.679 9.603 156.559 9.996 156.317 C 10.388 156.065 10.749 155.735 11.078 155.33 L 12.369 156.317 C 11.42 157.545 10.09 158.159 8.382 158.159 C 7.673 158.159 7.027 158.039 6.445 157.799 C 5.875 157.559 5.387 157.229 4.983 156.811 C 4.59 156.381 4.286 155.881 4.071 155.312 C 3.856 154.729 3.748 154.102 3.748 153.43 C 3.748 152.759 3.861 152.139 4.09 151.569 C 4.33 150.987 4.653 150.487 5.059 150.069 C 5.477 149.639 5.969 149.303 6.539 149.062 C 7.109 148.822 7.73 148.702 8.4 148.702 C 9.199 148.702 9.869 148.841 10.413 149.12 C 10.97 149.399 11.427 149.766 11.781 150.221 C 12.136 150.664 12.388 151.17 12.54 151.74 C 12.704 152.297 12.787 152.867 12.787 153.449 L 12.787 154.058 L 5.57 154.058 Z M 10.965 152.69 C 10.951 152.31 10.889 151.962 10.774 151.646 C 10.674 151.329 10.515 151.057 10.3 150.829 C 10.084 150.588 9.813 150.404 9.483 150.277 C 9.167 150.14 8.793 150.069 8.363 150.069 C 7.945 150.069 7.558 150.152 7.204 150.316 C 6.862 150.468 6.571 150.671 6.331 150.923 C 6.091 151.177 5.9 151.461 5.761 151.778 C 5.634 152.082 5.57 152.385 5.57 152.69 L 10.965 152.69 Z M 24.252 147.391 C 23.871 146.897 23.391 146.518 22.809 146.252 C 22.225 145.987 21.623 145.853 21.004 145.853 C 20.244 145.853 19.554 145.999 18.933 146.29 C 18.326 146.569 17.801 146.955 17.358 147.448 C 16.927 147.942 16.592 148.524 16.351 149.196 C 16.111 149.854 15.991 150.563 15.991 151.323 C 15.991 152.031 16.104 152.703 16.333 153.336 C 16.56 153.968 16.889 154.527 17.319 155.007 C 17.75 155.488 18.275 155.868 18.896 156.146 C 19.517 156.425 20.219 156.564 21.004 156.564 C 21.777 156.564 22.454 156.406 23.036 156.09 C 23.618 155.774 24.112 155.33 24.516 154.76 L 26.055 155.919 C 25.954 156.058 25.776 156.261 25.524 156.527 C 25.27 156.78 24.934 157.039 24.516 157.305 C 24.1 157.559 23.592 157.78 22.998 157.97 C 22.415 158.173 21.738 158.274 20.965 158.274 C 19.902 158.274 18.94 158.071 18.079 157.667 C 17.231 157.261 16.502 156.728 15.895 156.07 C 15.301 155.412 14.844 154.671 14.528 153.848 C 14.211 153.013 14.054 152.17 14.054 151.323 C 14.054 150.284 14.225 149.328 14.565 148.455 C 14.908 147.569 15.382 146.809 15.991 146.176 C 16.61 145.53 17.351 145.031 18.212 144.676 C 19.073 144.322 20.023 144.144 21.061 144.144 C 21.946 144.144 22.814 144.315 23.662 144.657 C 24.523 144.999 25.226 145.525 25.771 146.232 L 24.252 147.391 Z M 27.444 148.93 L 29.152 148.93 L 29.152 150.316 L 29.191 150.316 C 29.305 150.076 29.457 149.861 29.646 149.67 C 29.836 149.468 30.045 149.297 30.274 149.157 C 30.514 149.018 30.773 148.91 31.052 148.834 C 31.33 148.746 31.609 148.702 31.888 148.702 C 32.166 148.702 32.419 148.739 32.646 148.816 L 32.571 150.658 C 32.431 150.62 32.292 150.588 32.153 150.563 C 32.013 150.538 31.874 150.524 31.736 150.524 C 30.9 150.524 30.26 150.759 29.817 151.228 C 29.374 151.696 29.152 152.424 29.152 153.412 L 29.152 157.931 L 27.444 157.931 L 27.444 148.93 Z M 35.05 154.058 C 35.05 154.451 35.132 154.811 35.297 155.141 C 35.475 155.456 35.702 155.73 35.981 155.957 C 36.258 156.185 36.582 156.361 36.949 156.488 C 37.316 156.615 37.696 156.679 38.089 156.679 C 38.62 156.679 39.082 156.559 39.474 156.317 C 39.867 156.065 40.227 155.735 40.557 155.33 L 41.848 156.317 C 40.899 157.545 39.569 158.159 37.86 158.159 C 37.151 158.159 36.505 158.039 35.923 157.799 C 35.353 157.559 34.866 157.229 34.461 156.811 C 34.069 156.381 33.765 155.881 33.55 155.312 C 33.335 154.729 33.227 154.102 33.227 153.43 C 33.227 152.759 33.34 152.139 33.568 151.569 C 33.809 150.987 34.132 150.487 34.536 150.069 C 34.955 149.639 35.448 149.303 36.018 149.062 C 36.588 148.822 37.209 148.702 37.879 148.702 C 38.677 148.702 39.349 148.841 39.892 149.12 C 40.449 149.399 40.905 149.766 41.259 150.221 C 41.614 150.664 41.868 151.17 42.019 151.74 C 42.184 152.297 42.266 152.867 42.266 153.449 L 42.266 154.058 L 35.05 154.058 Z M 40.443 152.69 C 40.43 152.31 40.367 151.962 40.254 151.646 C 40.151 151.329 39.994 151.057 39.779 150.829 C 39.564 150.588 39.291 150.404 38.962 150.277 C 38.645 150.14 38.272 150.069 37.842 150.069 C 37.424 150.069 37.038 150.152 36.683 150.316 C 36.341 150.468 36.05 150.671 35.81 150.923 C 35.568 151.177 35.379 151.461 35.24 151.778 C 35.113 152.082 35.05 152.385 35.05 152.69 L 40.443 152.69 Z M 52.951 157.931 L 51.242 157.931 L 51.242 156.64 L 51.205 156.64 C 50.875 157.122 50.42 157.496 49.838 157.76 C 49.268 158.027 48.679 158.159 48.07 158.159 C 47.375 158.159 46.742 158.039 46.172 157.799 C 45.615 157.559 45.133 157.222 44.729 156.792 C 44.336 156.361 44.032 155.862 43.817 155.292 C 43.602 154.723 43.494 154.102 43.494 153.43 C 43.494 152.759 43.602 152.139 43.817 151.569 C 44.032 150.987 44.336 150.487 44.729 150.069 C 45.133 149.639 45.615 149.303 46.172 149.062 C 46.742 148.822 47.375 148.702 48.07 148.702 C 48.716 148.702 49.324 148.841 49.894 149.12 C 50.464 149.385 50.9 149.753 51.205 150.221 L 51.242 150.221 L 51.242 143.574 L 52.951 143.574 L 52.951 157.931 Z M 48.28 156.564 C 48.735 156.564 49.146 156.488 49.515 156.337 C 49.882 156.172 50.192 155.957 50.445 155.691 C 50.698 155.412 50.894 155.083 51.034 154.703 C 51.173 154.311 51.242 153.886 51.242 153.43 C 51.242 152.975 51.173 152.557 51.034 152.177 C 50.894 151.784 50.698 151.456 50.445 151.189 C 50.192 150.911 49.882 150.695 49.515 150.544 C 49.146 150.38 48.735 150.297 48.28 150.297 C 47.823 150.297 47.412 150.38 47.045 150.544 C 46.678 150.695 46.368 150.911 46.115 151.189 C 45.862 151.456 45.666 151.784 45.526 152.177 C 45.387 152.557 45.317 152.975 45.317 153.43 C 45.317 153.886 45.387 154.311 45.526 154.703 C 45.666 155.083 45.862 155.412 46.115 155.691 C 46.368 155.957 46.678 156.172 47.045 156.337 C 47.412 156.488 47.823 156.564 48.28 156.564 Z M 55.294 148.93 L 57.003 148.93 L 57.003 157.931 L 55.294 157.931 L 55.294 148.93 Z M 54.895 145.701 C 54.895 145.359 55.015 145.068 55.255 144.828 C 55.509 144.574 55.806 144.449 56.148 144.449 C 56.49 144.449 56.781 144.574 57.021 144.828 C 57.275 145.068 57.402 145.359 57.402 145.701 C 57.402 146.043 57.275 146.34 57.021 146.594 C 56.781 146.834 56.49 146.955 56.148 146.955 C 55.806 146.955 55.509 146.834 55.255 146.594 C 55.015 146.34 54.895 146.043 54.895 145.701 Z M 64.166 150.411 L 61.716 150.411 L 61.716 154.495 C 61.716 154.747 61.723 155.001 61.735 155.254 C 61.748 155.495 61.792 155.716 61.868 155.919 C 61.957 156.109 62.083 156.268 62.248 156.393 C 62.425 156.508 62.679 156.564 63.007 156.564 C 63.21 156.564 63.418 156.545 63.634 156.508 C 63.849 156.469 64.046 156.4 64.223 156.298 L 64.223 157.856 C 64.02 157.97 63.755 158.046 63.425 158.083 C 63.109 158.134 62.862 158.159 62.684 158.159 C 62.026 158.159 61.513 158.071 61.146 157.894 C 60.792 157.704 60.527 157.464 60.349 157.173 C 60.185 156.882 60.083 156.559 60.045 156.204 C 60.02 155.837 60.007 155.469 60.007 155.102 L 60.007 150.411 L 58.032 150.411 L 58.032 148.93 L 60.007 148.93 L 60.007 146.404 L 61.716 146.404 L 61.716 148.93 L 64.166 148.93 L 64.166 150.411 Z M 71.201 144.486 L 73.916 144.486 L 78.19 154.666 L 78.266 154.666 L 82.5 144.486 L 85.216 144.486 L 85.216 157.931 L 83.392 157.931 L 83.392 146.878 L 83.355 146.878 L 78.816 157.931 L 77.601 157.931 L 73.062 146.878 L 73.025 146.878 L 73.025 157.931 L 71.201 157.931 L 71.201 144.486 Z M 89.113 153.43 C 89.113 153.886 89.184 154.311 89.322 154.703 C 89.461 155.083 89.658 155.412 89.911 155.691 C 90.165 155.957 90.475 156.172 90.842 156.337 C 91.209 156.488 91.62 156.564 92.075 156.564 C 92.532 156.564 92.943 156.488 93.31 156.337 C 93.677 156.172 93.987 155.957 94.241 155.691 C 94.494 155.412 94.69 155.083 94.829 154.703 C 94.968 154.311 95.039 153.886 95.039 153.43 C 95.039 152.975 94.968 152.557 94.829 152.177 C 94.69 151.784 94.494 151.456 94.241 151.189 C 93.987 150.911 93.677 150.695 93.31 150.544 C 92.943 150.38 92.532 150.297 92.075 150.297 C 91.62 150.297 91.209 150.38 90.842 150.544 C 90.475 150.695 90.165 150.911 89.911 151.189 C 89.658 151.456 89.461 151.784 89.322 152.177 C 89.184 152.557 89.113 152.975 89.113 153.43 Z M 87.291 153.43 C 87.291 152.772 87.411 152.158 87.651 151.588 C 87.905 151.018 88.246 150.519 88.676 150.088 C 89.106 149.658 89.614 149.323 90.196 149.081 C 90.779 148.829 91.405 148.702 92.075 148.702 C 92.747 148.702 93.374 148.829 93.956 149.081 C 94.538 149.323 95.044 149.658 95.475 150.088 C 95.905 150.519 96.242 151.018 96.482 151.588 C 96.734 152.158 96.861 152.772 96.861 153.43 C 96.861 154.089 96.734 154.71 96.482 155.292 C 96.242 155.862 95.905 156.361 95.475 156.792 C 95.044 157.21 94.538 157.545 93.956 157.799 C 93.374 158.039 92.747 158.159 92.075 158.159 C 91.405 158.159 90.779 158.039 90.196 157.799 C 89.614 157.545 89.106 157.21 88.676 156.792 C 88.246 156.361 87.905 155.862 87.651 155.292 C 87.411 154.71 87.291 154.089 87.291 153.43 Z M 98.623 148.93 L 100.332 148.93 L 100.332 150.316 L 100.37 150.316 C 100.585 149.835 100.959 149.448 101.491 149.157 C 102.022 148.854 102.636 148.702 103.333 148.702 C 103.763 148.702 104.174 148.771 104.566 148.91 C 104.972 149.037 105.32 149.24 105.612 149.519 C 105.916 149.797 106.156 150.157 106.334 150.6 C 106.51 151.031 106.598 151.544 106.598 152.139 L 106.598 157.931 L 104.889 157.931 L 104.889 152.615 C 104.889 152.196 104.833 151.842 104.719 151.551 C 104.605 151.246 104.453 151.006 104.263 150.829 C 104.074 150.639 103.852 150.506 103.598 150.431 C 103.358 150.341 103.105 150.297 102.839 150.297 C 102.484 150.297 102.155 150.355 101.851 150.468 C 101.548 150.582 101.281 150.766 101.054 151.018 C 100.826 151.26 100.648 151.569 100.521 151.95 C 100.396 152.329 100.332 152.779 100.332 153.297 L 100.332 157.931 L 98.623 157.931 L 98.623 148.93 Z M 108.929 148.93 L 110.638 148.93 L 110.638 157.931 L 108.929 157.931 L 108.929 148.93 Z M 108.53 145.701 C 108.53 145.359 108.65 145.068 108.89 144.828 C 109.144 144.574 109.442 144.449 109.783 144.449 C 110.125 144.449 110.416 144.574 110.656 144.828 C 110.91 145.068 111.037 145.359 111.037 145.701 C 111.037 146.043 110.91 146.34 110.656 146.594 C 110.416 146.834 110.125 146.955 109.783 146.955 C 109.442 146.955 109.144 146.834 108.89 146.594 C 108.65 146.34 108.53 146.043 108.53 145.701 Z M 117.801 150.411 L 115.352 150.411 L 115.352 154.495 C 115.352 154.747 115.357 155.001 115.37 155.254 C 115.384 155.495 115.428 155.716 115.504 155.919 C 115.592 156.109 115.719 156.268 115.883 156.393 C 116.061 156.508 116.314 156.564 116.643 156.564 C 116.846 156.564 117.054 156.545 117.27 156.508 C 117.485 156.469 117.681 156.4 117.859 156.298 L 117.859 157.856 C 117.656 157.97 117.39 158.046 117.061 158.083 C 116.744 158.134 116.497 158.159 116.32 158.159 C 115.662 158.159 115.149 158.071 114.782 157.894 C 114.428 157.704 114.161 157.464 113.985 157.173 C 113.819 156.882 113.719 156.559 113.68 156.204 C 113.655 155.837 113.643 155.469 113.643 155.102 L 113.643 150.411 L 111.667 150.411 L 111.667 148.93 L 113.643 148.93 L 113.643 146.404 L 115.352 146.404 L 115.352 148.93 L 117.801 148.93 L 117.801 150.411 Z M 121.012 153.43 C 121.012 153.886 121.083 154.311 121.222 154.703 C 121.361 155.083 121.557 155.412 121.81 155.691 C 122.064 155.957 122.374 156.172 122.741 156.337 C 123.108 156.488 123.519 156.564 123.976 156.564 C 124.431 156.564 124.842 156.488 125.209 156.337 C 125.578 156.172 125.887 155.957 126.14 155.691 C 126.393 155.412 126.59 155.083 126.729 154.703 C 126.869 154.311 126.938 153.886 126.938 153.43 C 126.938 152.975 126.869 152.557 126.729 152.177 C 126.59 151.784 126.393 151.456 126.14 151.189 C 125.887 150.911 125.578 150.695 125.209 150.544 C 124.842 150.38 124.431 150.297 123.976 150.297 C 123.519 150.297 123.108 150.38 122.741 150.544 C 122.374 150.695 122.064 150.911 121.81 151.189 C 121.557 151.456 121.361 151.784 121.222 152.177 C 121.083 152.557 121.012 152.975 121.012 153.43 Z M 119.19 153.43 C 119.19 152.772 119.31 152.158 119.55 151.588 C 119.804 151.018 120.146 150.519 120.576 150.088 C 121.007 149.658 121.513 149.323 122.095 149.081 C 122.678 148.829 123.304 148.702 123.976 148.702 C 124.646 148.702 125.273 148.829 125.855 149.081 C 126.438 149.323 126.945 149.658 127.375 150.088 C 127.806 150.519 128.141 151.018 128.381 151.588 C 128.635 152.158 128.762 152.772 128.762 153.43 C 128.762 154.089 128.635 154.71 128.381 155.292 C 128.141 155.862 127.806 156.361 127.375 156.792 C 126.945 157.21 126.438 157.545 125.855 157.799 C 125.273 158.039 124.646 158.159 123.976 158.159 C 123.304 158.159 122.678 158.039 122.095 157.799 C 121.513 157.545 121.007 157.21 120.576 156.792 C 120.146 156.361 119.804 155.862 119.55 155.292 C 119.31 154.71 119.19 154.089 119.19 153.43 Z M 130.522 148.93 L 132.231 148.93 L 132.231 150.316 L 132.27 150.316 C 132.383 150.076 132.535 149.861 132.725 149.67 C 132.916 149.468 133.124 149.297 133.352 149.157 C 133.593 149.018 133.852 148.91 134.131 148.834 C 134.41 148.746 134.687 148.702 134.966 148.702 C 135.244 148.702 135.498 148.739 135.726 148.816 L 135.65 150.658 C 135.511 150.62 135.371 150.588 135.232 150.563 C 135.093 150.538 134.953 150.524 134.814 150.524 C 133.979 150.524 133.339 150.759 132.896 151.228 C 132.453 151.696 132.231 152.424 132.231 153.412 L 132.231 157.931 L 130.522 157.931 L 130.522 148.93 Z M 137.304 148.93 L 139.013 148.93 L 139.013 157.931 L 137.304 157.931 L 137.304 148.93 Z M 136.905 145.701 C 136.905 145.359 137.025 145.068 137.267 144.828 C 137.519 144.574 137.817 144.449 138.158 144.449 C 138.5 144.449 138.791 144.574 139.033 144.828 C 139.285 145.068 139.412 145.359 139.412 145.701 C 139.412 146.043 139.285 146.34 139.033 146.594 C 138.791 146.834 138.5 146.955 138.158 146.955 C 137.817 146.955 137.519 146.834 137.267 146.594 C 137.025 146.34 136.905 146.043 136.905 145.701 Z M 141.353 148.93 L 143.063 148.93 L 143.063 150.316 L 143.101 150.316 C 143.316 149.835 143.689 149.448 144.221 149.157 C 144.753 148.854 145.366 148.702 146.063 148.702 C 146.494 148.702 146.905 148.771 147.298 148.91 C 147.702 149.037 148.051 149.24 148.342 149.519 C 148.646 149.797 148.886 150.157 149.064 150.6 C 149.24 151.031 149.33 151.544 149.33 152.139 L 149.33 157.931 L 147.621 157.931 L 147.621 152.615 C 147.621 152.196 147.563 151.842 147.45 151.551 C 147.335 151.246 147.183 151.006 146.993 150.829 C 146.804 150.639 146.582 150.506 146.329 150.431 C 146.088 150.341 145.836 150.297 145.569 150.297 C 145.215 150.297 144.886 150.355 144.581 150.468 C 144.278 150.582 144.012 150.766 143.784 151.018 C 143.556 151.26 143.38 151.569 143.253 151.95 C 143.126 152.329 143.063 152.779 143.063 153.297 L 143.063 157.931 L 141.353 157.931 L 141.353 148.93 Z M 160.546 157.856 C 160.546 158.54 160.426 159.159 160.186 159.717 C 159.957 160.286 159.629 160.773 159.198 161.179 C 158.768 161.597 158.249 161.92 157.641 162.148 C 157.034 162.375 156.362 162.49 155.628 162.49 C 154.767 162.49 153.975 162.37 153.254 162.128 C 152.545 161.888 151.869 161.47 151.223 160.876 L 152.38 159.432 C 152.823 159.913 153.305 160.274 153.823 160.514 C 154.344 160.768 154.931 160.895 155.589 160.895 C 156.223 160.895 156.748 160.8 157.166 160.609 C 157.584 160.433 157.913 160.198 158.154 159.907 C 158.406 159.616 158.584 159.281 158.685 158.9 C 158.787 158.533 158.837 158.159 158.837 157.78 L 158.837 156.451 L 158.78 156.451 C 158.451 156.995 158.002 157.4 157.432 157.667 C 156.875 157.919 156.286 158.046 155.667 158.046 C 155.007 158.046 154.393 157.931 153.823 157.704 C 153.267 157.464 152.786 157.141 152.38 156.735 C 151.976 156.317 151.659 155.83 151.431 155.273 C 151.204 154.703 151.089 154.089 151.089 153.43 C 151.089 152.772 151.197 152.158 151.412 151.588 C 151.627 151.006 151.931 150.5 152.324 150.069 C 152.729 149.639 153.209 149.303 153.767 149.062 C 154.337 148.822 154.97 148.702 155.667 148.702 C 156.274 148.702 156.863 148.834 157.432 149.101 C 158.015 149.367 158.47 149.739 158.8 150.221 L 158.837 150.221 L 158.837 148.93 L 160.546 148.93 L 160.546 157.856 Z M 155.875 150.297 C 155.42 150.297 155.007 150.38 154.64 150.544 C 154.273 150.695 153.963 150.911 153.71 151.189 C 153.456 151.456 153.261 151.784 153.121 152.177 C 152.982 152.557 152.913 152.975 152.913 153.43 C 152.913 154.343 153.178 155.077 153.71 155.634 C 154.241 156.178 154.963 156.451 155.875 156.451 C 156.787 156.451 157.508 156.178 158.039 155.634 C 158.572 155.077 158.837 154.343 158.837 153.43 C 158.837 152.975 158.768 152.557 158.629 152.177 C 158.489 151.784 158.293 151.456 158.039 151.189 C 157.787 150.911 157.477 150.695 157.11 150.544 C 156.743 150.38 156.33 150.297 155.875 150.297 Z M 172.314 144.486 L 173.966 144.486 L 179.72 157.931 L 177.594 157.931 L 176.245 154.608 L 169.845 154.608 L 168.516 157.931 L 166.389 157.931 L 172.314 144.486 Z M 175.58 153.013 L 173.073 146.841 L 173.036 146.841 L 170.49 153.013 L 175.58 153.013 Z M 181.09 144.486 L 185.818 144.486 C 186.679 144.486 187.388 144.606 187.945 144.847 C 188.502 145.075 188.938 145.372 189.256 145.74 C 189.584 146.095 189.813 146.499 189.939 146.955 C 190.065 147.398 190.129 147.829 190.129 148.247 C 190.129 148.663 190.065 149.101 189.939 149.556 C 189.813 150 189.584 150.404 189.256 150.771 C 188.938 151.126 188.502 151.424 187.945 151.664 C 187.388 151.892 186.679 152.006 185.818 152.006 L 182.912 152.006 L 182.912 157.931 L 181.09 157.931 L 181.09 144.486 Z M 182.912 150.411 L 185.306 150.411 C 185.66 150.411 186.008 150.385 186.35 150.335 C 186.705 150.272 187.014 150.164 187.28 150.013 C 187.559 149.861 187.781 149.646 187.945 149.367 C 188.109 149.076 188.192 148.702 188.192 148.247 C 188.192 147.79 188.109 147.423 187.945 147.144 C 187.781 146.853 187.559 146.633 187.28 146.479 C 187.014 146.328 186.705 146.227 186.35 146.176 C 186.008 146.112 185.66 146.081 185.306 146.081 L 182.912 146.081 L 182.912 150.411 Z M 191.967 144.486 L 193.789 144.486 L 193.789 157.931 L 191.967 157.931 L 191.967 144.486 Z" fill="#122645" style=""/>
  <path d="M 63.658 35.743 L 35.049 85.301 L 31.866 85.301 L 22.651 69.28 L 5.738 69.28 L 23.268 99.996 L 43.69 99.996 L 80.525 35.743 L 63.658 35.743 Z" fill="#FF9245" style=""/>
  <path d="M 60.395 99.996 L 53.613 88.205 L 46.792 99.996 L 60.395 99.996 Z" fill="#132645" style=""/>
  <path d="M 51.958 50.395 L 60.395 35.743 L 23.436 35.743 L 5.738 66.455 L 22.651 66.455 L 31.866 50.395 L 51.958 50.395 Z" fill="#132645" style=""/>
  <path d="M 170.92 82.728 C 170.92 80.293 170.066 78.434 168.354 77.144 C 166.646 75.828 163.563 74.455 159.114 73.02 C 154.669 71.563 151.143 70.131 148.547 68.728 C 141.476 64.889 137.939 59.721 137.939 53.222 C 137.939 49.843 138.879 46.836 140.762 44.201 C 142.677 41.539 145.399 39.463 148.932 37.973 C 152.5 36.485 156.494 35.743 160.915 35.743 C 165.36 35.743 169.325 36.557 172.803 38.19 C 176.283 39.793 178.979 42.071 180.89 45.02 C 182.827 47.968 183.799 51.319 183.799 55.068 L 170.967 55.068 C 170.967 52.203 170.066 49.986 168.271 48.411 C 166.475 46.807 163.95 46.005 160.698 46.005 C 157.564 46.005 155.124 46.678 153.384 48.027 C 151.646 49.342 150.775 51.088 150.775 53.264 C 150.775 55.297 151.786 57.003 153.809 58.377 C 155.861 59.751 158.873 61.038 162.838 62.24 C 170.137 64.445 175.458 67.182 178.793 70.444 C 182.131 73.711 183.799 77.775 183.799 82.642 C 183.799 88.053 181.758 92.307 177.681 95.396 C 173.605 98.464 168.113 99.996 161.213 99.996 C 156.418 99.996 152.056 99.122 148.119 97.373 C 144.186 95.597 141.178 93.179 139.094 90.116 C 137.042 87.051 136.015 83.501 136.015 79.466 L 148.891 79.466 C 148.891 86.367 152.997 89.817 161.213 89.817 C 164.264 89.817 166.646 89.199 168.354 87.966 C 170.066 86.709 170.92 84.962 170.92 82.728 Z" fill="#132645" style=""/>
  <path d="M 107.034 76.48 L 96.492 76.48 L 96.492 100 L 83.254 100 L 83.254 35.747 L 107.126 35.747 C 114.714 35.747 120.566 37.437 124.684 40.822 C 128.802 44.205 130.859 48.983 130.859 55.164 C 130.859 59.546 129.905 63.208 127.993 66.151 C 126.11 69.066 123.241 71.387 119.388 73.126 L 133.289 99.382 L 133.289 100 L 119.082 100 L 107.034 76.48 Z M 96.492 65.753 L 107.166 65.753 C 110.492 65.753 113.064 64.918 114.889 63.24 C 116.714 61.535 117.625 59.195 117.625 56.222 C 117.625 53.194 116.753 50.808 115.022 49.076 C 113.317 47.338 110.683 46.468 107.126 46.468 L 96.492 46.468 L 96.492 65.753 Z" fill="#132645" style=""/>
  <path d="M 186.112 96.131 C 186.112 95.44 186.277 94.796 186.613 94.202 C 186.954 93.605 187.423 93.141 188.015 92.799 C 188.613 92.457 189.261 92.285 189.952 92.285 C 190.644 92.285 191.288 92.457 191.882 92.799 C 192.483 93.141 192.947 93.605 193.282 94.202 C 193.622 94.796 193.789 95.44 193.789 96.131 C 193.789 96.834 193.618 97.485 193.278 98.082 C 192.934 98.675 192.466 99.143 191.871 99.482 C 191.28 99.824 190.64 99.996 189.952 99.996 C 189.257 99.996 188.609 99.82 188.015 99.478 C 187.423 99.135 186.958 98.667 186.621 98.071 C 186.282 97.477 186.112 96.831 186.112 96.131 Z M 193.125 96.131 C 193.125 95.565 192.993 95.034 192.719 94.545 C 192.45 94.056 192.068 93.663 191.574 93.37 C 191.081 93.075 190.538 92.928 189.952 92.928 C 189.38 92.928 188.845 93.071 188.352 93.35 C 187.862 93.635 187.477 94.021 187.196 94.515 C 186.913 95.008 186.772 95.552 186.772 96.131 C 186.772 96.717 186.913 97.255 187.187 97.752 C 187.467 98.246 187.854 98.637 188.343 98.926 C 188.841 99.211 189.376 99.357 189.952 99.357 C 190.529 99.357 191.064 99.211 191.557 98.917 C 192.055 98.626 192.441 98.234 192.715 97.736 C 192.988 97.242 193.125 96.707 193.125 96.131 Z M 189.173 96.524 L 189.173 98.262 L 188.356 98.262 L 188.356 93.88 L 189.875 93.88 C 190.421 93.88 190.848 94.001 191.164 94.235 C 191.475 94.469 191.632 94.804 191.632 95.237 C 191.632 95.622 191.429 95.919 191.022 96.131 C 191.242 96.24 191.395 96.391 191.483 96.583 C 191.57 96.77 191.616 97.005 191.616 97.289 C 191.616 97.569 191.624 97.768 191.632 97.885 C 191.648 98.002 191.673 98.099 191.707 98.179 L 191.707 98.262 L 190.869 98.262 C 190.824 98.145 190.798 97.811 190.798 97.263 C 190.798 97.001 190.741 96.813 190.621 96.699 C 190.503 96.583 190.305 96.524 190.026 96.524 L 189.173 96.524 Z M 189.173 95.835 L 189.906 95.835 C 190.176 95.835 190.391 95.781 190.563 95.669 C 190.737 95.56 190.824 95.417 190.824 95.237 C 190.824 94.996 190.757 94.824 190.629 94.728 C 190.5 94.623 190.272 94.57 189.937 94.566 L 189.173 94.566 L 189.173 95.835 Z" fill="#132645" style=""/>
</svg>