<?xml version="1.0" encoding="utf-8"?>
<svg width="200" height="200" viewBox="0 0 200 200" fill="none" xmlns="http://www.w3.org/2000/svg">
  <path d="M 65.649 26.455 L 38.303 73.492 L 35.258 73.492 L 26.446 58.284 L 10.283 58.284 L 27.04 87.438 L 46.56 87.438 L 81.772 26.455 L 65.649 26.455 Z" fill="#FF9245" style=""/>
  <path d="M 62.525 87.438 L 56.047 76.247 L 49.526 87.438 L 62.525 87.438 Z" fill="#132645" style=""/>
  <path d="M 54.465 40.362 L 62.525 26.455 L 27.199 26.455 L 10.283 55.609 L 26.446 55.609 L 35.258 40.362 L 54.465 40.362 Z" fill="#132645" style=""/>
  <path d="M 168.182 71.05 C 168.182 68.742 167.365 66.974 165.728 65.753 C 164.091 64.501 161.149 63.196 156.895 61.837 C 152.642 60.453 149.276 59.093 146.794 57.761 C 140.035 54.122 136.654 49.214 136.654 43.046 C 136.654 39.839 137.553 36.984 139.353 34.487 C 141.181 31.957 143.781 29.987 147.163 28.576 C 150.572 27.161 154.386 26.455 158.612 26.455 C 162.866 26.455 166.655 27.228 169.982 28.778 C 173.308 30.3 175.884 32.461 177.708 35.26 C 179.563 38.059 180.491 41.238 180.491 44.798 L 168.221 44.798 C 168.221 42.082 167.365 39.973 165.645 38.479 C 163.928 36.956 161.518 36.199 158.41 36.199 C 155.409 36.199 153.078 36.838 151.417 38.114 C 149.752 39.363 148.923 41.02 148.923 43.085 C 148.923 45.016 149.89 46.633 151.825 47.938 C 153.787 49.242 156.665 50.467 160.451 51.605 C 167.432 53.698 172.515 56.294 175.706 59.391 C 178.897 62.491 180.491 66.348 180.491 70.966 C 180.491 76.104 178.54 80.14 174.644 83.073 C 170.743 85.983 165.498 87.438 158.897 87.438 C 154.319 87.438 150.148 86.61 146.386 84.948 C 142.624 83.264 139.75 80.968 137.76 78.062 C 135.793 75.153 134.814 71.783 134.814 67.953 L 147.123 67.953 C 147.123 74.503 151.048 77.777 158.897 77.777 C 161.815 77.777 164.091 77.19 165.728 76.021 C 167.365 74.828 168.182 73.171 168.182 71.05 Z" fill="#132645" style=""/>
  <path d="M 107.111 65.119 L 97.03 65.119 L 97.03 87.442 L 84.376 87.442 L 84.376 26.459 L 107.195 26.459 C 114.449 26.459 120.047 28.065 123.984 31.276 C 127.92 34.487 129.886 39.026 129.886 44.889 C 129.886 49.048 128.975 52.524 127.147 55.319 C 125.347 58.082 122.604 60.286 118.921 61.936 L 132.206 86.855 L 132.206 87.442 L 118.628 87.442 L 107.111 65.119 Z M 97.03 54.943 L 107.238 54.943 C 110.414 54.943 112.876 54.146 114.62 52.552 C 116.364 50.935 117.232 48.715 117.232 45.892 C 117.232 43.018 116.404 40.754 114.747 39.109 C 113.113 37.46 110.6 36.635 107.195 36.635 L 97.03 36.635 L 97.03 54.943 Z" fill="#132645" style=""/>
  <path d="M 182.703 83.771 C 182.703 83.113 182.862 82.503 183.183 81.94 C 183.508 81.373 183.952 80.933 184.523 80.608 C 185.093 80.282 185.712 80.12 186.37 80.12 C 187.032 80.12 187.647 80.282 188.217 80.608 C 188.788 80.933 189.236 81.373 189.557 81.94 C 189.878 82.503 190.041 83.113 190.041 83.771 C 190.041 84.437 189.878 85.056 189.549 85.622 C 189.224 86.185 188.776 86.629 188.205 86.95 C 187.643 87.276 187.028 87.438 186.37 87.438 C 185.708 87.438 185.09 87.272 184.523 86.947 C 183.956 86.621 183.512 86.177 183.187 85.611 C 182.866 85.048 182.703 84.433 182.703 83.771 Z M 189.407 83.771 C 189.407 83.232 189.276 82.728 189.018 82.265 C 188.76 81.801 188.396 81.428 187.924 81.151 C 187.452 80.869 186.933 80.73 186.37 80.73 C 185.823 80.73 185.315 80.865 184.844 81.131 C 184.372 81.4 184.003 81.769 183.734 82.237 C 183.468 82.705 183.333 83.22 183.333 83.771 C 183.333 84.326 183.464 84.837 183.73 85.309 C 183.999 85.777 184.368 86.15 184.836 86.423 C 185.308 86.693 185.819 86.832 186.37 86.832 C 186.925 86.832 187.436 86.693 187.908 86.415 C 188.384 86.138 188.753 85.765 189.014 85.293 C 189.276 84.826 189.407 84.318 189.407 83.771 Z M 185.629 84.144 L 185.629 85.793 L 184.848 85.793 L 184.848 81.634 L 186.299 81.634 C 186.818 81.634 187.23 81.749 187.532 81.971 C 187.829 82.193 187.98 82.51 187.98 82.923 C 187.98 83.287 187.785 83.569 187.397 83.771 C 187.607 83.874 187.754 84.017 187.833 84.199 C 187.92 84.378 187.964 84.6 187.964 84.869 C 187.964 85.135 187.968 85.325 187.98 85.436 C 187.991 85.547 188.019 85.638 188.051 85.714 L 188.051 85.793 L 187.25 85.793 C 187.206 85.682 187.183 85.365 187.183 84.845 C 187.183 84.596 187.127 84.417 187.012 84.31 C 186.897 84.199 186.711 84.144 186.445 84.144 L 185.629 84.144 Z M 185.629 83.49 L 186.33 83.49 C 186.584 83.49 186.794 83.438 186.957 83.331 C 187.123 83.228 187.203 83.093 187.203 82.923 C 187.203 82.693 187.143 82.53 187.016 82.439 C 186.897 82.34 186.675 82.288 186.358 82.284 L 185.629 82.284 L 185.629 83.49 Z" fill="#132645" style=""/>
  <path d="M 6.311 125.129 C 6.311 125.522 6.394 125.882 6.558 126.212 C 6.736 126.527 6.964 126.801 7.243 127.028 C 7.521 127.256 7.844 127.432 8.211 127.559 C 8.578 127.686 8.958 127.75 9.351 127.75 C 9.882 127.75 10.344 127.63 10.737 127.388 C 11.129 127.136 11.49 126.806 11.819 126.401 L 13.11 127.388 C 12.161 128.616 10.831 129.23 9.123 129.23 C 8.414 129.23 7.768 129.11 7.186 128.87 C 6.616 128.63 6.128 128.3 5.724 127.882 C 5.331 127.452 5.027 126.952 4.812 126.383 C 4.597 125.8 4.489 125.173 4.489 124.501 C 4.489 123.83 4.602 123.21 4.831 122.64 C 5.071 122.058 5.394 121.558 5.8 121.14 C 6.218 120.71 6.71 120.374 7.28 120.133 C 7.85 119.893 8.471 119.773 9.141 119.773 C 9.94 119.773 10.61 119.912 11.154 120.191 C 11.711 120.47 12.168 120.837 12.522 121.292 C 12.877 121.735 13.129 122.241 13.281 122.811 C 13.445 123.368 13.528 123.938 13.528 124.52 L 13.528 125.129 L 6.311 125.129 Z M 11.706 123.761 C 11.692 123.381 11.63 123.033 11.515 122.717 C 11.415 122.4 11.256 122.128 11.041 121.9 C 10.825 121.659 10.554 121.475 10.224 121.348 C 9.908 121.211 9.534 121.14 9.104 121.14 C 8.686 121.14 8.299 121.223 7.945 121.387 C 7.603 121.539 7.312 121.742 7.072 121.994 C 6.832 122.248 6.641 122.532 6.502 122.849 C 6.375 123.153 6.311 123.456 6.311 123.761 L 11.706 123.761 Z M 24.993 118.462 C 24.612 117.968 24.132 117.589 23.55 117.323 C 22.966 117.058 22.364 116.924 21.745 116.924 C 20.985 116.924 20.295 117.07 19.674 117.361 C 19.067 117.64 18.542 118.026 18.099 118.519 C 17.668 119.013 17.333 119.595 17.092 120.267 C 16.852 120.925 16.732 121.634 16.732 122.394 C 16.732 123.102 16.845 123.774 17.074 124.407 C 17.301 125.039 17.63 125.598 18.06 126.078 C 18.491 126.559 19.016 126.939 19.637 127.217 C 20.258 127.496 20.96 127.635 21.745 127.635 C 22.518 127.635 23.195 127.477 23.777 127.161 C 24.359 126.845 24.853 126.401 25.257 125.831 L 26.796 126.99 C 26.695 127.129 26.517 127.332 26.265 127.598 C 26.011 127.851 25.675 128.11 25.257 128.376 C 24.841 128.63 24.333 128.851 23.739 129.041 C 23.156 129.244 22.479 129.345 21.706 129.345 C 20.643 129.345 19.681 129.142 18.82 128.738 C 17.972 128.332 17.243 127.799 16.636 127.141 C 16.042 126.483 15.585 125.742 15.269 124.919 C 14.952 124.084 14.795 123.241 14.795 122.394 C 14.795 121.355 14.966 120.399 15.306 119.526 C 15.649 118.64 16.123 117.88 16.732 117.247 C 17.351 116.601 18.092 116.102 18.953 115.747 C 19.814 115.393 20.764 115.215 21.802 115.215 C 22.687 115.215 23.555 115.386 24.403 115.728 C 25.264 116.07 25.967 116.596 26.512 117.303 L 24.993 118.462 Z M 28.185 120.001 L 29.893 120.001 L 29.893 121.387 L 29.932 121.387 C 30.046 121.147 30.198 120.932 30.387 120.741 C 30.577 120.539 30.786 120.368 31.015 120.228 C 31.255 120.089 31.514 119.981 31.793 119.905 C 32.071 119.817 32.35 119.773 32.629 119.773 C 32.907 119.773 33.16 119.81 33.387 119.887 L 33.312 121.729 C 33.172 121.691 33.033 121.659 32.894 121.634 C 32.754 121.609 32.615 121.595 32.477 121.595 C 31.641 121.595 31.001 121.83 30.558 122.299 C 30.115 122.767 29.893 123.495 29.893 124.483 L 29.893 129.002 L 28.185 129.002 L 28.185 120.001 Z M 35.791 125.129 C 35.791 125.522 35.873 125.882 36.038 126.212 C 36.216 126.527 36.443 126.801 36.722 127.028 C 36.999 127.256 37.323 127.432 37.69 127.559 C 38.057 127.686 38.437 127.75 38.83 127.75 C 39.361 127.75 39.823 127.63 40.215 127.388 C 40.608 127.136 40.968 126.806 41.298 126.401 L 42.589 127.388 C 41.64 128.616 40.31 129.23 38.601 129.23 C 37.892 129.23 37.246 129.11 36.664 128.87 C 36.094 128.63 35.607 128.3 35.202 127.882 C 34.81 127.452 34.506 126.952 34.291 126.383 C 34.076 125.8 33.968 125.173 33.968 124.501 C 33.968 123.83 34.081 123.21 34.309 122.64 C 34.55 122.058 34.873 121.558 35.277 121.14 C 35.696 120.71 36.189 120.374 36.759 120.133 C 37.329 119.893 37.95 119.773 38.62 119.773 C 39.418 119.773 40.09 119.912 40.633 120.191 C 41.19 120.47 41.646 120.837 42 121.292 C 42.355 121.735 42.609 122.241 42.76 122.811 C 42.925 123.368 43.007 123.938 43.007 124.52 L 43.007 125.129 L 35.791 125.129 Z M 41.184 123.761 C 41.171 123.381 41.108 123.033 40.995 122.717 C 40.892 122.4 40.735 122.128 40.52 121.9 C 40.305 121.659 40.032 121.475 39.703 121.348 C 39.386 121.211 39.013 121.14 38.583 121.14 C 38.165 121.14 37.779 121.223 37.424 121.387 C 37.082 121.539 36.791 121.742 36.551 121.994 C 36.309 122.248 36.12 122.532 35.981 122.849 C 35.854 123.153 35.791 123.456 35.791 123.761 L 41.184 123.761 Z M 53.692 129.002 L 51.983 129.002 L 51.983 127.711 L 51.946 127.711 C 51.616 128.193 51.161 128.567 50.579 128.831 C 50.009 129.098 49.42 129.23 48.811 129.23 C 48.116 129.23 47.483 129.11 46.913 128.87 C 46.356 128.63 45.874 128.293 45.47 127.863 C 45.077 127.432 44.773 126.933 44.558 126.363 C 44.343 125.794 44.235 125.173 44.235 124.501 C 44.235 123.83 44.343 123.21 44.558 122.64 C 44.773 122.058 45.077 121.558 45.47 121.14 C 45.874 120.71 46.356 120.374 46.913 120.133 C 47.483 119.893 48.116 119.773 48.811 119.773 C 49.457 119.773 50.065 119.912 50.635 120.191 C 51.205 120.456 51.641 120.824 51.946 121.292 L 51.983 121.292 L 51.983 114.645 L 53.692 114.645 L 53.692 129.002 Z M 49.021 127.635 C 49.476 127.635 49.887 127.559 50.256 127.408 C 50.623 127.243 50.933 127.028 51.186 126.762 C 51.439 126.483 51.635 126.154 51.775 125.774 C 51.914 125.382 51.983 124.957 51.983 124.501 C 51.983 124.046 51.914 123.628 51.775 123.248 C 51.635 122.855 51.439 122.527 51.186 122.26 C 50.933 121.982 50.623 121.766 50.256 121.615 C 49.887 121.451 49.476 121.368 49.021 121.368 C 48.564 121.368 48.153 121.451 47.786 121.615 C 47.419 121.766 47.109 121.982 46.856 122.26 C 46.603 122.527 46.407 122.855 46.267 123.248 C 46.128 123.628 46.058 124.046 46.058 124.501 C 46.058 124.957 46.128 125.382 46.267 125.774 C 46.407 126.154 46.603 126.483 46.856 126.762 C 47.109 127.028 47.419 127.243 47.786 127.408 C 48.153 127.559 48.564 127.635 49.021 127.635 Z M 56.035 120.001 L 57.744 120.001 L 57.744 129.002 L 56.035 129.002 L 56.035 120.001 Z M 55.636 116.772 C 55.636 116.43 55.756 116.139 55.996 115.899 C 56.25 115.645 56.547 115.52 56.889 115.52 C 57.231 115.52 57.522 115.645 57.762 115.899 C 58.016 116.139 58.143 116.43 58.143 116.772 C 58.143 117.114 58.016 117.411 57.762 117.665 C 57.522 117.905 57.231 118.026 56.889 118.026 C 56.547 118.026 56.25 117.905 55.996 117.665 C 55.756 117.411 55.636 117.114 55.636 116.772 Z M 64.907 121.482 L 62.457 121.482 L 62.457 125.566 C 62.457 125.818 62.464 126.072 62.476 126.325 C 62.489 126.566 62.533 126.787 62.609 126.99 C 62.698 127.18 62.824 127.339 62.989 127.464 C 63.166 127.579 63.42 127.635 63.748 127.635 C 63.951 127.635 64.159 127.616 64.375 127.579 C 64.59 127.54 64.787 127.471 64.964 127.369 L 64.964 128.927 C 64.761 129.041 64.496 129.117 64.166 129.154 C 63.85 129.205 63.603 129.23 63.425 129.23 C 62.767 129.23 62.254 129.142 61.887 128.965 C 61.533 128.775 61.268 128.535 61.09 128.244 C 60.926 127.953 60.824 127.63 60.786 127.275 C 60.761 126.908 60.748 126.54 60.748 126.173 L 60.748 121.482 L 58.773 121.482 L 58.773 120.001 L 60.748 120.001 L 60.748 117.475 L 62.457 117.475 L 62.457 120.001 L 64.907 120.001 L 64.907 121.482 Z M 71.942 115.557 L 74.657 115.557 L 78.931 125.737 L 79.007 125.737 L 83.241 115.557 L 85.957 115.557 L 85.957 129.002 L 84.133 129.002 L 84.133 117.949 L 84.096 117.949 L 79.557 129.002 L 78.342 129.002 L 73.803 117.949 L 73.766 117.949 L 73.766 129.002 L 71.942 129.002 L 71.942 115.557 Z M 89.854 124.501 C 89.854 124.957 89.925 125.382 90.063 125.774 C 90.202 126.154 90.399 126.483 90.652 126.762 C 90.906 127.028 91.216 127.243 91.583 127.408 C 91.95 127.559 92.361 127.635 92.816 127.635 C 93.273 127.635 93.684 127.559 94.051 127.408 C 94.418 127.243 94.728 127.028 94.982 126.762 C 95.235 126.483 95.431 126.154 95.57 125.774 C 95.709 125.382 95.78 124.957 95.78 124.501 C 95.78 124.046 95.709 123.628 95.57 123.248 C 95.431 122.855 95.235 122.527 94.982 122.26 C 94.728 121.982 94.418 121.766 94.051 121.615 C 93.684 121.451 93.273 121.368 92.816 121.368 C 92.361 121.368 91.95 121.451 91.583 121.615 C 91.216 121.766 90.906 121.982 90.652 122.26 C 90.399 122.527 90.202 122.855 90.063 123.248 C 89.925 123.628 89.854 124.046 89.854 124.501 Z M 88.032 124.501 C 88.032 123.843 88.152 123.229 88.392 122.659 C 88.646 122.089 88.987 121.59 89.417 121.159 C 89.847 120.729 90.355 120.394 90.937 120.152 C 91.52 119.9 92.146 119.773 92.816 119.773 C 93.488 119.773 94.115 119.9 94.697 120.152 C 95.279 120.394 95.785 120.729 96.216 121.159 C 96.646 121.59 96.983 122.089 97.223 122.659 C 97.475 123.229 97.602 123.843 97.602 124.501 C 97.602 125.16 97.475 125.781 97.223 126.363 C 96.983 126.933 96.646 127.432 96.216 127.863 C 95.785 128.281 95.279 128.616 94.697 128.87 C 94.115 129.11 93.488 129.23 92.816 129.23 C 92.146 129.23 91.52 129.11 90.937 128.87 C 90.355 128.616 89.847 128.281 89.417 127.863 C 88.987 127.432 88.646 126.933 88.392 126.363 C 88.152 125.781 88.032 125.16 88.032 124.501 Z M 99.364 120.001 L 101.073 120.001 L 101.073 121.387 L 101.111 121.387 C 101.326 120.906 101.7 120.519 102.232 120.228 C 102.763 119.925 103.377 119.773 104.074 119.773 C 104.504 119.773 104.915 119.842 105.307 119.981 C 105.713 120.108 106.061 120.311 106.353 120.59 C 106.657 120.868 106.897 121.228 107.075 121.671 C 107.251 122.102 107.339 122.615 107.339 123.21 L 107.339 129.002 L 105.63 129.002 L 105.63 123.686 C 105.63 123.267 105.574 122.913 105.46 122.622 C 105.346 122.317 105.194 122.077 105.004 121.9 C 104.815 121.71 104.593 121.577 104.339 121.502 C 104.099 121.412 103.846 121.368 103.58 121.368 C 103.225 121.368 102.896 121.426 102.592 121.539 C 102.289 121.653 102.022 121.837 101.795 122.089 C 101.567 122.331 101.389 122.64 101.262 123.021 C 101.137 123.4 101.073 123.85 101.073 124.368 L 101.073 129.002 L 99.364 129.002 L 99.364 120.001 Z M 109.67 120.001 L 111.379 120.001 L 111.379 129.002 L 109.67 129.002 L 109.67 120.001 Z M 109.271 116.772 C 109.271 116.43 109.391 116.139 109.631 115.899 C 109.885 115.645 110.183 115.52 110.524 115.52 C 110.866 115.52 111.157 115.645 111.397 115.899 C 111.651 116.139 111.778 116.43 111.778 116.772 C 111.778 117.114 111.651 117.411 111.397 117.665 C 111.157 117.905 110.866 118.026 110.524 118.026 C 110.183 118.026 109.885 117.905 109.631 117.665 C 109.391 117.411 109.271 117.114 109.271 116.772 Z M 118.542 121.482 L 116.093 121.482 L 116.093 125.566 C 116.093 125.818 116.098 126.072 116.111 126.325 C 116.125 126.566 116.169 126.787 116.245 126.99 C 116.333 127.18 116.46 127.339 116.624 127.464 C 116.802 127.579 117.055 127.635 117.384 127.635 C 117.587 127.635 117.795 127.616 118.011 127.579 C 118.226 127.54 118.422 127.471 118.6 127.369 L 118.6 128.927 C 118.397 129.041 118.131 129.117 117.802 129.154 C 117.485 129.205 117.238 129.23 117.061 129.23 C 116.403 129.23 115.89 129.142 115.523 128.965 C 115.169 128.775 114.902 128.535 114.726 128.244 C 114.56 127.953 114.46 127.63 114.421 127.275 C 114.396 126.908 114.384 126.54 114.384 126.173 L 114.384 121.482 L 112.408 121.482 L 112.408 120.001 L 114.384 120.001 L 114.384 117.475 L 116.093 117.475 L 116.093 120.001 L 118.542 120.001 L 118.542 121.482 Z M 121.753 124.501 C 121.753 124.957 121.824 125.382 121.963 125.774 C 122.102 126.154 122.298 126.483 122.551 126.762 C 122.805 127.028 123.115 127.243 123.482 127.408 C 123.849 127.559 124.26 127.635 124.717 127.635 C 125.172 127.635 125.583 127.559 125.95 127.408 C 126.319 127.243 126.628 127.028 126.881 126.762 C 127.134 126.483 127.331 126.154 127.47 125.774 C 127.61 125.382 127.679 124.957 127.679 124.501 C 127.679 124.046 127.61 123.628 127.47 123.248 C 127.331 122.855 127.134 122.527 126.881 122.26 C 126.628 121.982 126.319 121.766 125.95 121.615 C 125.583 121.451 125.172 121.368 124.717 121.368 C 124.26 121.368 123.849 121.451 123.482 121.615 C 123.115 121.766 122.805 121.982 122.551 122.26 C 122.298 122.527 122.102 122.855 121.963 123.248 C 121.824 123.628 121.753 124.046 121.753 124.501 Z M 119.931 124.501 C 119.931 123.843 120.051 123.229 120.291 122.659 C 120.545 122.089 120.887 121.59 121.317 121.159 C 121.748 120.729 122.254 120.394 122.836 120.152 C 123.419 119.9 124.045 119.773 124.717 119.773 C 125.387 119.773 126.014 119.9 126.596 120.152 C 127.179 120.394 127.686 120.729 128.116 121.159 C 128.547 121.59 128.882 122.089 129.122 122.659 C 129.376 123.229 129.503 123.843 129.503 124.501 C 129.503 125.16 129.376 125.781 129.122 126.363 C 128.882 126.933 128.547 127.432 128.116 127.863 C 127.686 128.281 127.179 128.616 126.596 128.87 C 126.014 129.11 125.387 129.23 124.717 129.23 C 124.045 129.23 123.419 129.11 122.836 128.87 C 122.254 128.616 121.748 128.281 121.317 127.863 C 120.887 127.432 120.545 126.933 120.291 126.363 C 120.051 125.781 119.931 125.16 119.931 124.501 Z M 131.263 120.001 L 132.972 120.001 L 132.972 121.387 L 133.011 121.387 C 133.124 121.147 133.276 120.932 133.466 120.741 C 133.657 120.539 133.865 120.368 134.093 120.228 C 134.334 120.089 134.593 119.981 134.872 119.905 C 135.151 119.817 135.428 119.773 135.707 119.773 C 135.985 119.773 136.239 119.81 136.467 119.887 L 136.391 121.729 C 136.252 121.691 136.112 121.659 135.973 121.634 C 135.834 121.609 135.694 121.595 135.555 121.595 C 134.72 121.595 134.08 121.83 133.637 122.299 C 133.194 122.767 132.972 123.495 132.972 124.483 L 132.972 129.002 L 131.263 129.002 L 131.263 120.001 Z M 138.045 120.001 L 139.754 120.001 L 139.754 129.002 L 138.045 129.002 L 138.045 120.001 Z M 137.646 116.772 C 137.646 116.43 137.766 116.139 138.008 115.899 C 138.26 115.645 138.558 115.52 138.899 115.52 C 139.241 115.52 139.532 115.645 139.774 115.899 C 140.026 116.139 140.153 116.43 140.153 116.772 C 140.153 117.114 140.026 117.411 139.774 117.665 C 139.532 117.905 139.241 118.026 138.899 118.026 C 138.558 118.026 138.26 117.905 138.008 117.665 C 137.766 117.411 137.646 117.114 137.646 116.772 Z M 142.094 120.001 L 143.804 120.001 L 143.804 121.387 L 143.842 121.387 C 144.057 120.906 144.43 120.519 144.962 120.228 C 145.494 119.925 146.107 119.773 146.804 119.773 C 147.235 119.773 147.646 119.842 148.039 119.981 C 148.443 120.108 148.792 120.311 149.083 120.59 C 149.387 120.868 149.627 121.228 149.805 121.671 C 149.981 122.102 150.071 122.615 150.071 123.21 L 150.071 129.002 L 148.362 129.002 L 148.362 123.686 C 148.362 123.267 148.304 122.913 148.191 122.622 C 148.076 122.317 147.924 122.077 147.734 121.9 C 147.545 121.71 147.323 121.577 147.07 121.502 C 146.829 121.412 146.577 121.368 146.31 121.368 C 145.956 121.368 145.627 121.426 145.322 121.539 C 145.019 121.653 144.753 121.837 144.525 122.089 C 144.297 122.331 144.121 122.64 143.994 123.021 C 143.867 123.4 143.804 123.85 143.804 124.368 L 143.804 129.002 L 142.094 129.002 L 142.094 120.001 Z M 161.287 128.927 C 161.287 129.611 161.167 130.23 160.927 130.788 C 160.698 131.357 160.37 131.844 159.939 132.25 C 159.509 132.668 158.99 132.991 158.382 133.219 C 157.775 133.446 157.103 133.561 156.369 133.561 C 155.508 133.561 154.716 133.441 153.995 133.199 C 153.286 132.959 152.61 132.541 151.964 131.947 L 153.121 130.503 C 153.564 130.984 154.046 131.345 154.564 131.585 C 155.085 131.839 155.672 131.966 156.33 131.966 C 156.964 131.966 157.489 131.871 157.907 131.68 C 158.325 131.504 158.654 131.269 158.895 130.978 C 159.147 130.687 159.325 130.352 159.426 129.971 C 159.528 129.604 159.578 129.23 159.578 128.851 L 159.578 127.522 L 159.521 127.522 C 159.192 128.066 158.743 128.471 158.173 128.738 C 157.616 128.99 157.027 129.117 156.408 129.117 C 155.748 129.117 155.134 129.002 154.564 128.775 C 154.008 128.535 153.527 128.212 153.121 127.806 C 152.717 127.388 152.4 126.901 152.172 126.344 C 151.945 125.774 151.83 125.16 151.83 124.501 C 151.83 123.843 151.938 123.229 152.153 122.659 C 152.368 122.077 152.672 121.571 153.065 121.14 C 153.47 120.71 153.95 120.374 154.508 120.133 C 155.078 119.893 155.711 119.773 156.408 119.773 C 157.015 119.773 157.604 119.905 158.173 120.172 C 158.756 120.438 159.211 120.81 159.541 121.292 L 159.578 121.292 L 159.578 120.001 L 161.287 120.001 L 161.287 128.927 Z M 156.616 121.368 C 156.161 121.368 155.748 121.451 155.381 121.615 C 155.014 121.766 154.704 121.982 154.451 122.26 C 154.197 122.527 154.002 122.855 153.862 123.248 C 153.723 123.628 153.654 124.046 153.654 124.501 C 153.654 125.414 153.919 126.148 154.451 126.705 C 154.982 127.249 155.704 127.522 156.616 127.522 C 157.528 127.522 158.249 127.249 158.78 126.705 C 159.313 126.148 159.578 125.414 159.578 124.501 C 159.578 124.046 159.509 123.628 159.37 123.248 C 159.23 122.855 159.034 122.527 158.78 122.26 C 158.528 121.982 158.218 121.766 157.851 121.615 C 157.484 121.451 157.071 121.368 156.616 121.368 Z M 173.055 115.557 L 174.707 115.557 L 180.461 129.002 L 178.335 129.002 L 176.986 125.679 L 170.586 125.679 L 169.257 129.002 L 167.13 129.002 L 173.055 115.557 Z M 176.321 124.084 L 173.814 117.912 L 173.777 117.912 L 171.231 124.084 L 176.321 124.084 Z M 181.831 115.557 L 186.559 115.557 C 187.42 115.557 188.129 115.677 188.686 115.918 C 189.243 116.146 189.679 116.443 189.997 116.811 C 190.325 117.166 190.554 117.57 190.68 118.026 C 190.806 118.469 190.87 118.9 190.87 119.318 C 190.87 119.734 190.806 120.172 190.68 120.627 C 190.554 121.071 190.325 121.475 189.997 121.842 C 189.679 122.197 189.243 122.495 188.686 122.735 C 188.129 122.963 187.42 123.077 186.559 123.077 L 183.653 123.077 L 183.653 129.002 L 181.831 129.002 L 181.831 115.557 Z M 183.653 121.482 L 186.047 121.482 C 186.401 121.482 186.749 121.456 187.091 121.406 C 187.446 121.343 187.755 121.235 188.021 121.084 C 188.3 120.932 188.522 120.717 188.686 120.438 C 188.85 120.147 188.933 119.773 188.933 119.318 C 188.933 118.861 188.85 118.494 188.686 118.215 C 188.522 117.924 188.3 117.704 188.021 117.55 C 187.755 117.399 187.446 117.298 187.091 117.247 C 186.749 117.183 186.401 117.152 186.047 117.152 L 183.653 117.152 L 183.653 121.482 Z M 192.708 115.557 L 194.53 115.557 L 194.53 129.002 L 192.708 129.002 L 192.708 115.557 Z" fill="#122645" style=""/>
</svg>