<svg width="1600" height="239" viewBox="0 0 1600 239" fill="none" xmlns="http://www.w3.org/2000/svg">
<mask id="mask0_2802_3092" style="mask-type:alpha" maskUnits="userSpaceOnUse" x="0" y="0" width="1600" height="239">
<rect width="1600" height="239" fill="#122645"/>
</mask>
<g mask="url(#mask0_2802_3092)">
<rect width="1600" height="239" fill="#122645"/>
<path d="M1422.93 -69L1525.92 -9.46936L1525.93 153.112L1515.68 147.187L1422.94 93.5814L1422.93 -69Z" fill="url(#paint0_linear_2802_3092)"/>
<path d="M1396.06 -59.4518L1499.05 0.0788603L1499.06 162.66L1488.81 156.735L1396.07 103.13L1396.06 -59.4518Z" fill="#11233B"/>
<path d="M1387.64 -55.5769L1490.63 3.95373L1490.64 166.535L1488.06 167.985L1387.65 107.004L1384.82 -54.5791L1387.64 -55.5769Z" fill="#7CC4E3" stroke="white" stroke-width="1.5"/>
<rect width="118.959" height="162.581" transform="matrix(0.865778 0.500428 3.18011e-05 1 1384.8 -54.2748)" fill="#CC7EFF" stroke="white" stroke-width="1.5"/>
<g style="mix-blend-mode:multiply" opacity="0.4">
<rect width="0.867184" height="57.0631" rx="0.433592" transform="matrix(0.865778 0.500428 3.18011e-05 1 1398.98 -14.3581)" fill="#F1955E"/>
<rect width="0.867883" height="81.5153" rx="0.433941" transform="matrix(3.17474e-05 1 -0.865778 -0.500428 1469.56 26.4356)" fill="#F1955E"/>
<rect width="0.867883" height="81.5153" rx="0.433941" transform="matrix(3.17474e-05 1 -0.865778 -0.500428 1469.56 82.848)" fill="#F1955E"/>
<rect width="0.867883" height="81.5153" rx="0.433941" transform="matrix(3.17474e-05 1 -0.865778 -0.500428 1469.56 71.5655)" fill="#F1955E"/>
<rect width="0.867883" height="81.5153" rx="0.433941" transform="matrix(3.17474e-05 1 -0.865778 -0.500428 1469.56 60.283)" fill="#F1955E"/>
<rect width="0.867883" height="81.5153" rx="0.433941" transform="matrix(3.17474e-05 1 -0.865778 -0.500428 1469.56 48.9992)" fill="#F1955E"/>
<rect width="0.867883" height="81.5153" rx="0.433941" transform="matrix(3.17474e-05 1 -0.865778 -0.500428 1469.56 37.7181)" fill="#F1955E"/>
<rect width="0.867184" height="57.0631" rx="0.433592" transform="matrix(0.865778 0.500428 3.18203e-05 1 1410.62 -7.63043)" fill="#F1955E"/>
<rect width="0.867184" height="57.0631" rx="0.433592" transform="matrix(0.865778 0.500428 3.18203e-05 1 1422.26 -0.904114)" fill="#F1955E"/>
<rect width="0.867184" height="57.0631" rx="0.433592" transform="matrix(0.865778 0.500428 3.18203e-05 1 1433.9 5.8222)" fill="#F1955E"/>
<rect width="0.867184" height="57.0631" rx="0.433592" transform="matrix(0.865778 0.500428 3.18203e-05 1 1445.53 12.5485)" fill="#F1955E"/>
<rect width="0.867184" height="57.0631" rx="0.433592" transform="matrix(0.865778 0.500428 3.18203e-05 1 1457.17 19.2748)" fill="#F1955E"/>
<rect width="0.867184" height="57.0631" rx="0.433592" transform="matrix(0.865778 0.500428 3.18203e-05 1 1468.81 26.0011)" fill="#F1955E"/>
<rect width="36.9405" height="28.3437" rx="6" transform="matrix(0.865778 0.500428 3.18203e-05 1 1437.58 72.7075)" fill="#F1955E"/>
<ellipse rx="6.54573" ry="6.55097" transform="matrix(-0.865778 -0.500428 -3.17858e-05 -1 1453.57 96.4306)" stroke="#EEF2FF" stroke-width="14.6314"/>
<path d="M1453.57 89.8789C1456.7 91.688 1459.24 96.0876 1459.24 99.7056" stroke="white" stroke-width="14.6314"/>
<rect width="36.9405" height="28.3437" rx="6" transform="matrix(0.865778 0.500428 3.18203e-05 1 1398.99 50.4012)" fill="#F1955E"/>
<rect width="5.41794" height="12.0769" rx="2.70897" transform="matrix(0.865778 0.500428 3.18395e-05 1 1403.25 64.5121)" fill="white"/>
<rect width="5.41794" height="18.485" rx="2.70897" transform="matrix(0.865778 0.500428 3.18395e-05 1 1409.65 61.8014)" fill="white"/>
<rect width="5.41794" height="14.788" rx="2.70897" transform="matrix(0.865778 0.500428 3.18395e-05 1 1416.04 69.1937)" fill="white"/>
<rect width="5.41794" height="8.13342" rx="2.70897" transform="matrix(0.865778 0.500428 3.18395e-05 1 1422.44 79.5463)" fill="white"/>
</g>
<rect width="0.867184" height="57.0631" rx="0.433592" transform="matrix(0.865778 0.500428 3.18011e-05 1 1372.8 -14.3566)" fill="#F6F8FF"/>
<rect width="0.867883" height="81.5153" rx="0.433941" transform="matrix(3.17474e-05 1 -0.865778 -0.500428 1443.38 26.4356)" fill="#F6F8FF"/>
<rect width="0.867883" height="81.5153" rx="0.433941" transform="matrix(3.17474e-05 1 -0.865778 -0.500428 1443.38 82.8481)" fill="#F6F8FF"/>
<rect width="0.867883" height="81.5153" rx="0.433941" transform="matrix(3.17474e-05 1 -0.865778 -0.500428 1443.38 71.5669)" fill="#F6F8FF"/>
<rect width="0.867883" height="81.5153" rx="0.433941" transform="matrix(3.17474e-05 1 -0.865778 -0.500428 1443.38 60.2844)" fill="#F6F8FF"/>
<rect width="0.867883" height="81.5153" rx="0.433941" transform="matrix(3.17474e-05 1 -0.865778 -0.500428 1443.38 49.0006)" fill="#F6F8FF"/>
<rect width="0.867883" height="81.5153" rx="0.433941" transform="matrix(3.17474e-05 1 -0.865778 -0.500428 1443.38 37.7194)" fill="#F6F8FF"/>
<rect width="0.867184" height="57.0631" rx="0.433592" transform="matrix(0.865778 0.500428 3.18203e-05 1 1384.44 -7.62909)" fill="#F6F8FF"/>
<rect width="0.867184" height="57.0631" rx="0.433592" transform="matrix(0.865778 0.500428 3.18203e-05 1 1396.08 -0.902832)" fill="#F6F8FF"/>
<rect width="0.867184" height="57.0631" rx="0.433592" transform="matrix(0.865778 0.500428 3.18203e-05 1 1407.71 5.82349)" fill="#F6F8FF"/>
<rect width="0.867184" height="57.0631" rx="0.433592" transform="matrix(0.865778 0.500428 3.18203e-05 1 1419.35 12.5498)" fill="#F6F8FF"/>
<rect width="0.867184" height="57.0631" rx="0.433592" transform="matrix(0.865778 0.500428 3.18203e-05 1 1430.99 19.2761)" fill="#F6F8FF"/>
<rect width="0.867184" height="57.0631" rx="0.433592" transform="matrix(0.865778 0.500428 3.18203e-05 1 1442.62 26.0024)" fill="#F6F8FF"/>
<rect width="36.9405" height="28.3437" rx="6" transform="matrix(0.865778 0.500428 3.18203e-05 1 1411.4 72.7101)" fill="#273956"/>
<path fill-rule="evenodd" clip-rule="evenodd" d="M1427.39 100.755C1429.45 101.949 1431.13 100.981 1431.13 98.5941C1431.13 96.2072 1429.45 93.3046 1427.39 92.111C1425.32 90.9175 1423.65 91.885 1423.65 94.2719C1423.65 96.6589 1425.32 99.5615 1427.39 100.755ZM1434.98 100.823C1434.98 105.672 1431.58 107.638 1427.39 105.213C1423.19 102.788 1419.79 96.8918 1419.79 92.0428C1419.79 87.1938 1423.19 85.2284 1427.39 87.6531C1431.58 90.0777 1434.98 95.9742 1434.98 100.823Z" fill="#CC7EFF"/>
<path fill-rule="evenodd" clip-rule="evenodd" d="M1431.13 98.594C1431.13 96.207 1429.45 93.3045 1427.39 92.1109L1427.39 87.6529C1431.58 90.0776 1434.98 95.9741 1434.98 100.823L1431.13 98.594Z" fill="#7CC4E3"/>
<rect width="36.9405" height="28.3437" rx="6" transform="matrix(0.865778 0.500428 3.18203e-05 1 1372.8 50.4025)" fill="#273956"/>
<rect width="5.41794" height="12.0769" rx="2.70897" transform="matrix(0.865778 0.500428 3.18395e-05 1 1377.07 64.5131)" fill="#CC7EFF"/>
<rect width="5.41794" height="18.485" rx="2.70897" transform="matrix(0.865778 0.500428 3.18395e-05 1 1383.47 61.8022)" fill="#CC7EFF"/>
<rect width="5.41794" height="14.788" rx="2.70897" transform="matrix(0.865778 0.500428 3.18395e-05 1 1389.86 69.1956)" fill="#CC7EFF"/>
<rect width="5.41794" height="8.13342" rx="2.70897" transform="matrix(0.865778 0.500428 3.18395e-05 1 1396.26 79.5479)" fill="#CC7EFF"/>
<rect width="130.256" height="156.077" rx="1" transform="matrix(0.866084 0.499899 3.19016e-05 1 1581.58 -49.3711)" fill="#273956"/>
<rect width="130.256" height="156.077" rx="1" transform="matrix(0.866084 0.499899 3.19016e-05 1 1560.16 -24.3968)" fill="#CC7EFF" stroke="white"/>
<rect width="130.256" height="156.077" rx="1" transform="matrix(0.866104 0.499864 3.19046e-05 1 1553.02 -17.2612)" stroke="white"/>
<path opacity="0.45" fill-rule="evenodd" clip-rule="evenodd" d="M1609.63 101.025C1623.18 108.845 1634.16 102.506 1634.16 86.8671C1634.16 71.2282 1623.17 52.211 1609.62 44.3911C1596.07 36.5711 1585.09 42.9097 1585.09 58.5487C1585.09 74.1877 1596.08 93.2049 1609.63 101.025ZM1609.63 108.606C1626.8 118.519 1640.73 110.484 1640.73 90.6578C1640.73 70.832 1626.8 46.7236 1609.62 36.8102C1592.45 26.8967 1578.52 34.9323 1578.52 54.758C1578.52 74.5838 1592.45 98.6922 1609.63 108.606Z" fill="#364176"/>
<path fill-rule="evenodd" clip-rule="evenodd" d="M1598.92 104.593C1612.47 112.413 1623.45 106.074 1623.45 90.4351C1623.45 74.7961 1612.47 55.7789 1598.92 47.959C1585.37 40.1391 1574.38 46.4777 1574.38 62.1166C1574.38 77.7556 1585.37 96.7728 1598.92 104.593ZM1598.92 112.174C1616.1 122.087 1630.02 114.052 1630.02 94.2257C1630.02 74.3999 1616.09 50.2915 1598.92 40.3781C1581.74 30.4647 1567.82 38.5002 1567.82 58.326C1567.82 78.1518 1581.74 102.26 1598.92 112.174Z" fill="#3F64D6"/>
<path d="M1598.92 105.093C1612.71 113.051 1623.88 106.6 1623.88 90.685C1623.88 74.7697 1612.7 55.4169 1598.92 47.459C1585.13 39.5011 1573.95 45.9514 1573.95 61.8667C1573.95 77.782 1585.13 97.1348 1598.92 105.093ZM1629.59 93.9758C1629.59 113.525 1615.86 121.449 1598.92 111.674C1581.98 101.898 1568.25 78.1254 1568.25 58.5759C1568.25 39.0264 1581.98 31.1026 1598.92 40.8781C1615.85 50.6536 1629.58 74.4263 1629.59 93.9758Z" stroke="white" stroke-opacity="0.25" style="mix-blend-mode:overlay"/>
<path opacity="0.35" d="M1569.25 116.52L1649.61 162.9" stroke="white"/>
<path d="M1569.25 106.709L1590.89 119.197" stroke="#364176" stroke-width="9"/>
<path d="M1562.63 106.709L1584.27 119.197" stroke="#7CC4E3" stroke-width="9"/>
<path d="M1569.25 126.331L1590.89 138.818" stroke="white" stroke-width="9"/>
<path d="M1553.02 138.817L1560.21 131.637" stroke="white"/>
<rect width="115.089" height="65.9983" rx="1" transform="matrix(0.866104 0.499864 3.18853e-05 1 1315.3 29.3899)" fill="#273956"/>
<rect width="115.089" height="65.9983" rx="1" transform="matrix(0.866104 0.499864 3.18853e-05 1 1293.88 47.2292)" fill="#7CC4E3" stroke="white"/>
<rect width="115.089" height="65.9983" rx="1" transform="matrix(0.866104 0.499864 3.18853e-05 1 1286.74 54.3655)" stroke="white"/>
<rect opacity="0.1" width="43.2698" height="44.5935" rx="1" transform="matrix(0.866104 0.499864 3.18853e-05 1 1303.15 66.8508)" fill="#122645"/>
<rect opacity="0.25" width="43.2698" height="44.5935" rx="1" transform="matrix(0.866104 0.499864 3.18853e-05 1 1296.02 72.2023)" stroke="white"/>
<path d="M1300.26 80.8983L1318.04 91.1556" stroke="white"/>
<path d="M1300.26 87.1417L1318.04 97.399" stroke="white"/>
<path d="M1300.26 93.3847L1318.04 103.642" stroke="white"/>
<path d="M1300.27 99.6277L1318.04 109.885" stroke="white"/>
<path d="M1300.27 105.871L1318.04 116.128" stroke="white"/>
<path d="M1300.27 112.114L1318.04 122.371" stroke="white"/>
<path d="M1321.9 93.3857L1328.08 96.9534" stroke="white"/>
<path d="M1321.9 99.6287L1328.08 103.196" stroke="white"/>
<path d="M1321.9 105.872L1328.08 109.44" stroke="white"/>
<path d="M1321.9 112.115L1328.08 115.683" stroke="white"/>
<path d="M1321.9 118.358L1328.08 121.926" stroke="white"/>
<path d="M1321.9 124.601L1328.08 128.169" stroke="white"/>
<ellipse opacity="0.1" rx="3.34569" ry="3.34483" transform="matrix(0.866104 0.499864 3.18853e-05 1 1350.95 107.099)" fill="#122645"/>
<ellipse rx="3.34569" ry="3.34483" transform="matrix(0.866104 0.499864 3.18853e-05 1 1346.05 107.099)" fill="#FF6F71"/>
<path d="M1355.6 108.325L1361.98 112.005" stroke="white"/>
<path d="M1355.6 112.116L1376.47 124.157" stroke="white"/>
<ellipse opacity="0.1" rx="3.34569" ry="3.34483" transform="matrix(0.866104 0.499864 3.18853e-05 1 1350.96 120.923)" fill="#122645"/>
<ellipse rx="3.34569" ry="3.34483" transform="matrix(0.866104 0.499864 3.18853e-05 1 1346.05 120.923)" fill="#FF6F71"/>
<path d="M1355.61 122.149L1361.98 125.828" stroke="white"/>
<path d="M1355.61 125.94L1376.47 137.981" stroke="white"/>
<ellipse opacity="0.1" rx="3.34569" ry="3.34483" transform="matrix(0.866104 0.499864 3.18853e-05 1 1350.96 134.747)" fill="#122645"/>
<ellipse rx="3.34569" ry="3.34483" transform="matrix(0.866104 0.499864 3.18853e-05 1 1346.05 134.747)" fill="#FF6F71"/>
<path d="M1355.61 135.973L1361.98 139.652" stroke="white"/>
<path d="M1355.61 139.763L1376.47 151.805" stroke="white"/>
<path d="M1286.79 54.5596L1293.97 47.3793" stroke="white"/>
<path d="M1286.79 120.267L1293.97 113.086" stroke="white"/>
<path d="M1386.33 112.073L1393.51 104.892" stroke="white"/>
<path d="M1386.33 177.76L1393.51 170.58" stroke="white"/>
<rect width="115.089" height="82.052" rx="1" transform="matrix(0.866104 0.499864 3.18853e-05 1 1497.36 106.542)" fill="#273956"/>
<rect width="115.089" height="82.052" rx="1" transform="matrix(0.866104 0.499864 3.18853e-05 1 1475.95 117.245)" fill="#364176" stroke="white"/>
<rect width="115.089" height="82.052" rx="1" transform="matrix(0.866104 0.499864 3.18853e-05 1 1468.81 124.38)" stroke="white"/>
<path opacity="0.35" d="M1478.47 196.844L1558.83 243.224" stroke="white" stroke-dasharray="4 7"/>
<path opacity="0.35" d="M1478.47 186.142L1558.83 232.522" stroke="white" stroke-dasharray="4 7"/>
<path opacity="0.35" d="M1478.47 175.441L1558.83 221.82" stroke="white" stroke-dasharray="4 7"/>
<path opacity="0.35" d="M1478.47 164.738L1558.83 211.117" stroke="white" stroke-dasharray="4 7"/>
<path opacity="0.35" d="M1478.47 154.036L1558.83 200.416" stroke="white" stroke-dasharray="4 7"/>
<path opacity="0.35" d="M1478.47 143.333L1558.83 189.712" stroke="white" stroke-dasharray="4 7"/>
<ellipse opacity="0.45" rx="4.23777" ry="4.23638" transform="matrix(0.866104 0.499864 3.18853e-05 1 1481.75 180.233)" fill="#CC7EFF"/>
<ellipse opacity="0.45" rx="4.23777" ry="4.23638" transform="matrix(0.866104 0.499864 3.18853e-05 1 1552.84 203.425)" fill="#CC7EFF"/>
<ellipse rx="1.56147" ry="1.56107" transform="matrix(0.866104 0.499864 3.18853e-05 1 1481.75 180.234)" fill="white"/>
<ellipse rx="1.56147" ry="1.56107" transform="matrix(0.866104 0.499864 3.18853e-05 1 1552.84 203.425)" fill="white"/>
<path d="M1481.75 180.457L1486.43 187.344C1490.01 192.618 1495.17 194.776 1497.87 192.126L1499.78 190.248C1501.69 188.373 1505.43 190.191 1507.72 194.102V194.102C1510.32 198.546 1514.66 200.141 1516.2 197.22L1518.45 192.958C1519.77 190.458 1523.49 191.849 1525.69 195.665V195.665C1527.85 199.391 1531.47 200.828 1532.86 198.507L1535.7 193.783C1538.21 189.584 1544.49 191.463 1548.97 197.752L1552.84 203.202" stroke="white" stroke-width="2"/>
<path d="M1468.93 124.517L1476.12 117.337" stroke="white"/>
<path d="M1468.93 206.403L1476.12 199.223" stroke="white"/>
<path d="M1568.44 182.101L1575.62 174.921" stroke="white"/>
<path d="M1333.15 147.787V200.088C1333.15 200.453 1332.95 200.789 1332.63 200.964L1256.07 243.047C1255.4 243.414 1254.59 242.931 1254.59 242.171V181.639" stroke="white"/>
<ellipse cx="1254.54" cy="189.219" rx="2.01426" ry="2.01641" fill="#FF6F71"/>
<path opacity="0.3" d="M1202.01 189.455L1191.55 195.372L1280.17 246.324L1290.42 240.407L1202.01 189.455Z" fill="#3F64D6"/>
<path opacity="0.3" d="M1316.87 185.141L1311.54 187.21L1416.49 246.323L1422.26 243.613L1316.87 185.141Z" fill="#3F64D6"/>
<path d="M1204.41 41.2971L1196.35 46.0124V148.384L1288.17 201.369L1296.22 196.778V94.4063L1204.41 41.2971Z" fill="#122645" stroke="white"/>
<path d="M1196.62 46.2434L1196.62 56.1059L1288.05 108.844L1295.87 104.312V94.5798L1204.4 41.7505L1196.62 46.2434Z" fill="#FF6F71"/>
<path d="M1196.35 46.0135L1288.05 98.9986L1296.1 94.4074" stroke="white"/>
<path d="M1196.35 56.0951L1288.05 109.08L1296.1 104.489" stroke="white"/>
<path d="M1211.1 59.8796L1213.45 61.2445" stroke="white"/>
<path d="M1206.02 56.9007L1208.12 58.1416" stroke="white"/>
<path d="M1200.81 53.923L1202.92 55.1638" stroke="white"/>
<path d="M1288.05 201.245V98.9974" stroke="white"/>
<path d="M1205.32 128.264C1205.32 128.621 1205.51 128.951 1205.82 129.13L1252.27 156.016C1252.94 156.402 1253.77 155.921 1253.77 155.15V114.032C1253.77 113.675 1253.58 113.344 1253.27 113.166L1206.82 86.3987C1206.15 86.0145 1205.32 86.4956 1205.32 87.2651V128.264Z" fill="#3F64D6"/>
<rect width="6.68657" height="14.9048" rx="3" transform="matrix(0.865778 0.500428 3.18395e-05 1 1215.11 109.422)" fill="#273956"/>
<rect width="6.68657" height="22.8134" rx="3" transform="matrix(0.865778 0.500428 3.18395e-05 1 1223.01 106.076)" fill="#273956"/>
<rect width="6.68657" height="18.2507" rx="3" transform="matrix(0.865778 0.500428 3.18395e-05 1 1230.9 115.201)" fill="#273956"/>
<rect width="6.68657" height="10.0379" rx="3" transform="matrix(0.865778 0.500428 3.18395e-05 1 1238.8 127.977)" fill="#273956"/>
<path d="M1261.44 133.133C1261.44 133.49 1261.63 133.82 1261.94 133.998L1278.88 143.803C1279.54 144.189 1280.38 143.708 1280.38 142.938V128.273C1280.38 127.915 1280.19 127.585 1279.88 127.406L1262.94 117.645C1262.27 117.26 1261.44 117.742 1261.44 118.511V133.133Z" fill="#273956"/>
<path d="M1261.44 160.284C1261.44 160.641 1261.63 160.97 1261.94 161.149L1278.88 170.954C1279.54 171.34 1280.38 170.859 1280.38 170.089V155.423C1280.38 155.066 1280.19 154.735 1279.88 154.557L1262.94 144.795C1262.27 144.411 1261.44 144.892 1261.44 145.662V160.284Z" fill="#273956"/>
<g filter="url(#filter0_b_2802_3092)">
<path d="M1185 129.833L1233.45 157.877V114.446L1185 86.5267V129.833Z" fill="#CC7EFF" fill-opacity="0.45"/>
</g>
<rect width="6.68657" height="14.9048" rx="3" transform="matrix(0.865778 0.500428 3.18395e-05 1 1192.69 110.064)" fill="#CC7EFF"/>
<rect width="6.68657" height="22.8134" rx="3" transform="matrix(0.865778 0.500428 3.18395e-05 1 1200.58 106.718)" fill="#CC7EFF"/>
<rect width="6.68657" height="18.2507" rx="3" transform="matrix(0.865778 0.500428 3.18395e-05 1 1208.48 115.842)" fill="#CC7EFF"/>
<rect width="6.68657" height="10.0379" rx="3" transform="matrix(0.865778 0.500428 3.18395e-05 1 1216.37 128.618)" fill="#CC7EFF"/>
</g>
<defs>
<filter id="filter0_b_2802_3092" x="1173" y="74.5267" width="72.4495" height="95.3499" filterUnits="userSpaceOnUse" color-interpolation-filters="sRGB">
<feFlood flood-opacity="0" result="BackgroundImageFix"/>
<feGaussianBlur in="BackgroundImage" stdDeviation="6"/>
<feComposite in2="SourceAlpha" operator="in" result="effect1_backgroundBlur_2802_3092"/>
<feBlend mode="normal" in="SourceGraphic" in2="effect1_backgroundBlur_2802_3092" result="shape"/>
</filter>
<linearGradient id="paint0_linear_2802_3092" x1="1519.35" y1="138.187" x2="1521.58" y2="-97.5735" gradientUnits="userSpaceOnUse">
<stop stop-color="#CF68EA" stop-opacity="0.549"/>
<stop offset="1" stop-color="#CF68EA" stop-opacity="0"/>
</linearGradient>
</defs>
</svg>
