<svg width="1600" height="239" viewBox="0 0 1600 239" fill="none" xmlns="http://www.w3.org/2000/svg">
<mask id="mask0_2817_3495" style="mask-type:alpha" maskUnits="userSpaceOnUse" x="0" y="0" width="1600" height="239">
<rect width="1600" height="239" fill="#122645"/>
</mask>
<g mask="url(#mask0_2817_3495)">
<rect width="1600" height="239" fill="#122645"/>
<rect x="1438" width="162" height="239" fill="#7CC4E3"/>
<path d="M1384 148.63L1562 260V11.913L1384 -91V148.63Z" fill="url(#paint0_linear_2817_3495)"/>
<path d="M1351 167.054C1351 167.41 1351.19 167.74 1351.5 167.919L1527.5 270.128C1528.16 270.515 1529 270.034 1529 269.263V31.49C1529 31.1329 1528.81 30.803 1528.5 30.6243L1352.5 -71.1324C1351.83 -71.5179 1351 -71.0368 1351 -70.2667V167.054Z" fill="#273956"/>
<path opacity="0.24" d="M1289.54 217.678L1267 230.405L1458.02 340L1480.11 327.273L1289.54 217.678Z" fill="#3F64D6"/>
<path d="M1294.7 -58L1277.34 -47.8576V172.339L1475.25 286.308L1492.61 276.433V56.2356L1294.7 -58Z" fill="#132645" stroke="white" stroke-width="0.95"/>
<path d="M1277.93 -47.3619L1277.93 -26.1482L1474.99 87.2903L1491.85 77.5401V56.6076L1294.69 -57.0259L1277.93 -47.3619Z" fill="#CC7EFF"/>
<path d="M1277.34 -47.8573L1474.99 66.1114L1492.35 56.2359" stroke="white" stroke-width="0.95"/>
<path d="M1277.34 -26.1711L1474.99 87.7975L1492.35 77.922" stroke="white" stroke-width="0.95"/>
<path d="M1474.99 286.041V66.1104" stroke="white" stroke-width="1.104"/>
<path d="M1296.87 148.351L1447.87 236V100.261L1296.87 13V148.351Z" fill="#3F64D6"/>
<g filter="url(#filter0_b_2817_3495)">
<path d="M1240 162.172L1393 251V103.435L1240 15V162.172Z" fill="#CC7EFF" fill-opacity="0.45"/>
</g>
<g style="mix-blend-mode:multiply" opacity="0.4">
<path d="M1264.54 42.6554C1264.54 42.2937 1264.8 42.1473 1265.11 42.3282C1265.42 42.5092 1265.68 42.9491 1265.68 43.3107L1265.68 111.179C1265.68 111.541 1265.43 111.687 1265.11 111.506C1264.8 111.325 1264.55 110.885 1264.55 110.524L1264.54 42.6554Z" fill="#F1955E"/>
<rect width="1.3107" height="123.106" rx="0.655348" transform="matrix(3.17474e-05 1 -0.865778 -0.500428 1371.13 171.803)" fill="#F1955E"/>
<rect width="1.3107" height="123.106" rx="0.655348" transform="matrix(3.17474e-05 1 -0.865778 -0.500428 1371.13 154.764)" fill="#F1955E"/>
<rect width="1.3107" height="123.106" rx="0.655348" transform="matrix(3.17474e-05 1 -0.865778 -0.500428 1371.13 137.725)" fill="#F1955E"/>
<rect width="1.3107" height="123.106" rx="0.655348" transform="matrix(3.17474e-05 1 -0.865778 -0.500428 1371.13 120.684)" fill="#F1955E"/>
<rect width="1.3107" height="123.106" rx="0.655348" transform="matrix(3.17474e-05 1 -0.865778 -0.500428 1371.13 103.647)" fill="#F1955E"/>
<path d="M1282.12 52.8155C1282.12 52.4539 1282.37 52.3074 1282.68 52.4884C1283 52.6694 1283.25 53.1093 1283.25 53.4709L1283.25 121.339C1283.25 121.701 1283 121.847 1282.69 121.666C1282.37 121.485 1282.12 121.045 1282.12 120.684L1282.12 52.8155Z" fill="#F1955E"/>
<path d="M1299.69 62.9737C1299.69 62.6121 1299.95 62.4656 1300.26 62.6466C1300.57 62.8276 1300.83 63.2675 1300.83 63.6291L1300.83 131.497C1300.83 131.859 1300.58 132.005 1300.26 131.824C1299.95 131.643 1299.7 131.204 1299.7 130.842L1299.69 62.9737Z" fill="#F1955E"/>
<path d="M1317.27 73.1319C1317.27 72.7703 1317.52 72.6238 1317.83 72.8048C1318.15 72.9858 1318.4 73.4257 1318.4 73.7873L1318.4 141.656C1318.4 142.017 1318.15 142.164 1317.84 141.983C1317.52 141.802 1317.27 141.362 1317.27 141L1317.27 73.1319Z" fill="#F1955E"/>
<path d="M1334.84 83.2901C1334.84 82.9285 1335.1 82.782 1335.41 82.963C1335.72 83.144 1335.98 83.5839 1335.98 83.9455L1335.98 151.814C1335.98 152.175 1335.73 152.322 1335.41 152.141C1335.1 151.96 1334.85 151.52 1334.85 151.158L1334.84 83.2901Z" fill="#F1955E"/>
<path d="M1352.42 93.4483C1352.42 93.0867 1352.67 92.9402 1352.98 93.1212C1353.3 93.3022 1353.55 93.7421 1353.55 94.1037L1353.55 161.972C1353.55 162.334 1353.3 162.48 1352.99 162.299C1352.67 162.118 1352.42 161.678 1352.42 161.317L1352.42 93.4483Z" fill="#F1955E"/>
<path d="M1369.99 103.607C1369.99 103.245 1370.25 103.098 1370.56 103.279C1370.87 103.46 1371.13 103.9 1371.13 104.262L1371.13 172.13C1371.13 172.492 1370.87 172.638 1370.56 172.457C1370.25 172.276 1369.99 171.836 1369.99 171.475L1369.99 103.607Z" fill="#F1955E"/>
<rect width="55.7883" height="42.8053" rx="6" transform="matrix(0.865778 0.500428 3.18203e-05 1 1322.83 156.489)" fill="#F1955E"/>
<ellipse rx="9.8855" ry="9.89342" transform="matrix(-0.865778 -0.500428 -3.17858e-05 -1 1346.98 192.316)" stroke="#EEF2FF" stroke-width="14.6314"/>
<path d="M1346.98 182.422C1351.71 185.154 1355.54 191.798 1355.54 197.262" stroke="white" stroke-width="14.6314"/>
<rect width="55.7883" height="42.8053" rx="6" transform="matrix(0.865778 0.500428 3.18203e-05 1 1264.55 122.801)" fill="#F1955E"/>
<rect width="8.18228" height="18.2388" rx="3" transform="matrix(0.865778 0.500428 3.18395e-05 1 1270.99 144.112)" fill="white"/>
<rect width="8.18228" height="27.9165" rx="3" transform="matrix(0.865778 0.500428 3.18395e-05 1 1280.65 140.018)" fill="white"/>
<rect width="8.18228" height="22.3332" rx="3" transform="matrix(0.865778 0.500428 3.18395e-05 1 1290.31 151.182)" fill="white"/>
<rect width="8.18228" height="12.2833" rx="4.09114" transform="matrix(0.865778 0.500428 3.18395e-05 1 1299.97 166.817)" fill="white"/>
</g>
<path d="M1225 42.6575C1225 42.2959 1225.25 42.1494 1225.57 42.3304C1225.88 42.5114 1226.13 42.9512 1226.13 43.3129L1226.14 111.181C1226.14 111.543 1225.88 111.689 1225.57 111.508C1225.26 111.327 1225 110.887 1225 110.526L1225 42.6575Z" fill="#F6F8FF"/>
<rect width="1.3107" height="123.106" rx="0.655348" transform="matrix(3.17474e-05 1 -0.865778 -0.500428 1331.59 171.803)" fill="#F6F8FF"/>
<rect width="1.3107" height="123.106" rx="0.655348" transform="matrix(3.17474e-05 1 -0.865778 -0.500428 1331.59 154.766)" fill="#F6F8FF"/>
<rect width="1.3107" height="123.106" rx="0.655348" transform="matrix(3.17474e-05 1 -0.865778 -0.500428 1331.58 137.727)" fill="#F6F8FF"/>
<rect width="1.3107" height="123.106" rx="0.655348" transform="matrix(3.17474e-05 1 -0.865778 -0.500428 1331.58 120.686)" fill="#F6F8FF"/>
<rect width="1.3107" height="123.106" rx="0.655348" transform="matrix(3.17474e-05 1 -0.865778 -0.500428 1331.58 103.649)" fill="#F6F8FF"/>
<path d="M1242.58 53.8176C1242.58 53.456 1242.83 53.3095 1243.14 53.4905C1243.46 53.6715 1243.71 54.1114 1243.71 54.473L1243.71 121.341C1243.71 121.703 1243.46 121.849 1243.15 121.668C1242.83 121.487 1242.58 121.048 1242.58 120.686L1242.58 53.8176Z" fill="#F6F8FF"/>
<path d="M1260.15 63.9758C1260.15 63.6142 1260.4 63.4677 1260.72 63.6487C1261.03 63.8297 1261.28 64.2696 1261.28 64.6312L1261.29 131.499C1261.29 131.861 1261.03 132.008 1260.72 131.827C1260.41 131.646 1260.15 131.206 1260.15 130.844L1260.15 63.9758Z" fill="#F6F8FF"/>
<path d="M1277.73 74.134C1277.73 73.7724 1277.98 73.6259 1278.29 73.8069C1278.61 73.9879 1278.86 74.4278 1278.86 74.7894L1278.86 141.658C1278.86 142.019 1278.61 142.166 1278.3 141.985C1277.98 141.804 1277.73 141.364 1277.73 141.002L1277.73 74.134Z" fill="#F6F8FF"/>
<path d="M1295.3 84.2923C1295.3 83.9306 1295.55 83.7842 1295.87 83.9651C1296.18 84.1461 1296.43 84.586 1296.43 84.9476L1296.44 151.816C1296.44 152.178 1296.18 152.324 1295.87 152.143C1295.56 151.962 1295.3 151.522 1295.3 151.16L1295.3 84.2923Z" fill="#F6F8FF"/>
<path d="M1312.88 94.4505C1312.88 94.0888 1313.13 93.9424 1313.44 94.1233C1313.76 94.3043 1314.01 94.7442 1314.01 95.1059L1314.01 161.974C1314.01 162.336 1313.76 162.482 1313.44 162.301C1313.13 162.12 1312.88 161.68 1312.88 161.319L1312.88 94.4505Z" fill="#F6F8FF"/>
<path d="M1330.45 104.609C1330.45 104.247 1330.7 104.101 1331.02 104.282C1331.33 104.463 1331.58 104.902 1331.58 105.264L1331.59 172.132C1331.59 172.494 1331.33 172.64 1331.02 172.459C1330.71 172.278 1330.45 171.839 1330.45 171.477L1330.45 104.609Z" fill="#F6F8FF"/>
<rect width="55.7883" height="42.8053" rx="6" transform="matrix(0.865778 0.500428 3.18203e-05 1 1283.29 156.493)" fill="#273956"/>
<path fill-rule="evenodd" clip-rule="evenodd" d="M1307.44 198.847C1310.56 200.65 1313.08 199.188 1313.08 195.584C1313.08 191.979 1310.56 187.595 1307.44 185.793C1304.32 183.99 1301.79 185.451 1301.79 189.056C1301.79 192.661 1304.32 197.044 1307.44 198.847ZM1318.91 198.95C1318.91 206.273 1313.77 209.241 1307.44 205.58C1301.1 201.918 1295.97 193.013 1295.97 185.69C1295.97 178.367 1301.1 175.398 1307.44 179.06C1313.77 182.722 1318.91 191.627 1318.91 198.95Z" fill="#CC7EFF"/>
<path fill-rule="evenodd" clip-rule="evenodd" d="M1313.08 195.583C1313.08 191.979 1310.56 187.595 1307.44 185.792L1307.44 179.06C1313.77 182.722 1318.91 191.627 1318.91 198.95L1313.08 195.583Z" fill="#7CC4E3"/>
<rect width="55.7883" height="42.8053" rx="6" transform="matrix(0.865778 0.500428 3.18203e-05 1 1225 122.803)" fill="#273956"/>
<rect width="8.18228" height="18.2388" rx="3" transform="matrix(0.865778 0.500428 3.18395e-05 1 1231.45 144.114)" fill="#CC7EFF"/>
<rect width="8.18228" height="27.9165" rx="3" transform="matrix(0.865778 0.500428 3.18395e-05 1 1241.11 140.02)" fill="#CC7EFF"/>
<rect width="8.18228" height="22.3332" rx="3" transform="matrix(0.865778 0.500428 3.18395e-05 1 1250.77 151.185)" fill="#CC7EFF"/>
<rect width="8.18228" height="12.2833" rx="3" transform="matrix(0.865778 0.500428 3.18395e-05 1 1260.43 166.82)" fill="#CC7EFF"/>
</g>
<defs>
<filter id="filter0_b_2817_3495" x="1228" y="3" width="177" height="260" filterUnits="userSpaceOnUse" color-interpolation-filters="sRGB">
<feFlood flood-opacity="0" result="BackgroundImageFix"/>
<feGaussianBlur in="BackgroundImage" stdDeviation="6"/>
<feComposite in2="SourceAlpha" operator="in" result="effect1_backgroundBlur_2817_3495"/>
<feBlend mode="normal" in="SourceGraphic" in2="effect1_backgroundBlur_2817_3495" result="shape"/>
</filter>
<linearGradient id="paint0_linear_2817_3495" x1="1550.64" y1="162.004" x2="1392.46" y2="-135.232" gradientUnits="userSpaceOnUse">
<stop stop-color="#CF68EA" stop-opacity="0.549"/>
<stop offset="1" stop-color="#CF68EA" stop-opacity="0"/>
</linearGradient>
</defs>
</svg>
